<?xml version="1.0" encoding="utf-8"?>
<!-- Generator: Adobe Illustrator 16.0.3, SVG Export Plug-In . SVG Version: 6.00 Build 0)  -->
<!DOCTYPE svg PUBLIC "-//W3C//DTD SVG 1.1//EN" "http://www.w3.org/Graphics/SVG/1.1/DTD/svg11.dtd">
<svg version="1.1" id="Layer_1" xmlns="http://www.w3.org/2000/svg" xmlns:xlink="http://www.w3.org/1999/xlink" x="0px" y="0px"
	 width="60px" height="699px" viewBox="0 0 60 699" enable-background="new 0 0 60 699" xml:space="preserve">
<g>
	<g>
		<g>
			<g>
				<path fill="#2E2E2E" d="M10.562,422.583v-10.877h-7.49c-1.627,0-2.95-1.325-2.95-2.95V379.12c0-1.627,1.323-2.952,2.95-2.952
					H56.84c1.627,0,2.95,1.325,2.95,2.952v29.636c0,1.625-1.323,2.95-2.95,2.95H20.542L10.562,422.583z M3.072,377.452
					c-0.92,0-1.668,0.748-1.668,1.668v29.636c0,0.918,0.748,1.666,1.668,1.666h8.772v8.866l8.134-8.866H56.84
					c0.92,0,1.668-0.748,1.668-1.666V379.12c0-0.92-0.748-1.668-1.668-1.668H3.072z"/>
			</g>
		</g>
		<g>
			<g id="Layer_1_8_">
				<g>
					<g>
						<g>
							<path fill="#2E2E2E" d="M30.084,382.129c-6.365,0-11.543,5.18-11.543,11.549c0,6.368,5.178,11.549,11.543,11.549
								s11.544-5.181,11.544-11.549C41.628,387.309,36.449,382.129,30.084,382.129z M30.084,404.457
								c-5.94,0-10.773-4.835-10.773-10.779c0-5.945,4.833-10.778,10.773-10.778c5.941,0,10.774,4.833,10.774,10.778
								C40.858,399.622,36.025,404.457,30.084,404.457z"/>
						</g>
						<g>
							<path fill="#2E2E2E" d="M30.084,405.356c-6.436,0-11.672-5.24-11.672-11.679c0-6.439,5.236-11.678,11.672-11.678
								s11.672,5.238,11.672,11.678C41.756,400.116,36.52,405.356,30.084,405.356z M30.084,382.258
								c-6.294,0-11.415,5.121-11.415,11.42c0,6.298,5.121,11.42,11.415,11.42c6.295,0,11.416-5.122,11.416-11.42
								C41.5,387.379,36.379,382.258,30.084,382.258z M30.084,404.586c-6.012,0-10.902-4.894-10.902-10.908
								c0-6.016,4.891-10.907,10.902-10.907s10.902,4.892,10.902,10.907C40.986,399.692,36.096,404.586,30.084,404.586z
								 M30.084,383.028c-5.869,0-10.646,4.776-10.646,10.649s4.776,10.65,10.646,10.65c5.87,0,10.646-4.777,10.646-10.65
								S35.954,383.028,30.084,383.028z"/>
						</g>
					</g>
					<g>
						<g>
							<path fill="#2E2E2E" d="M37.361,394.448H22.807c-0.212,0-0.385,0.172-0.385,0.385c0,4.124,3.438,7.48,7.662,7.48
								c4.226,0,7.662-3.356,7.662-7.48C37.746,394.62,37.574,394.448,37.361,394.448z M30.084,401.544
								c-3.604,0-6.668-2.86-6.881-6.326h13.762C36.752,398.684,33.688,401.544,30.084,401.544z"/>
						</g>
						<g>
							<path fill="#2E2E2E" d="M30.084,402.442c-4.295,0-7.79-3.413-7.79-7.609c0-0.283,0.229-0.514,0.513-0.514h14.555
								c0.283,0,0.514,0.23,0.514,0.514C37.875,399.029,34.38,402.442,30.084,402.442z M22.807,394.575
								c-0.142,0-0.256,0.115-0.256,0.258c0,4.054,3.379,7.352,7.533,7.352s7.534-3.298,7.534-7.352
								c0-0.143-0.115-0.258-0.257-0.258H22.807z M30.084,401.673c-3.646,0-6.791-2.892-7.008-6.447l-0.009-0.137h14.034
								l-0.008,0.137C36.875,398.781,33.73,401.673,30.084,401.673z M23.342,395.345c0.28,3.36,3.275,6.07,6.742,6.07
								s6.463-2.71,6.743-6.07H23.342z"/>
						</g>
					</g>
					<g>
						<g>
							<path fill="#2E2E2E" d="M25.818,391.369c1.061,0,1.924-0.864,1.924-1.925c0-1.062-0.863-1.927-1.924-1.927
								s-1.924,0.864-1.924,1.927C23.895,390.505,24.758,391.369,25.818,391.369z M25.818,388.288c0.637,0,1.154,0.518,1.154,1.156
								c0,0.635-0.518,1.154-1.154,1.154s-1.154-0.52-1.154-1.154C24.664,388.806,25.182,388.288,25.818,388.288z"/>
						</g>
						<g>
							<path fill="#2E2E2E" d="M25.818,391.496c-1.132,0-2.053-0.921-2.053-2.052c0-1.133,0.921-2.056,2.053-2.056
								c1.131,0,2.052,0.923,2.052,2.056C27.87,390.575,26.949,391.496,25.818,391.496z M25.818,387.646
								c-0.99,0-1.796,0.806-1.796,1.798c0,0.988,0.806,1.796,1.796,1.796s1.795-0.808,1.795-1.796
								C27.613,388.452,26.809,387.646,25.818,387.646z M25.818,390.726c-0.707,0-1.283-0.574-1.283-1.281
								c0-0.709,0.576-1.285,1.283-1.285s1.282,0.576,1.282,1.285C27.101,390.151,26.525,390.726,25.818,390.726z M25.818,388.417
								c-0.566,0-1.026,0.459-1.026,1.027c0,0.564,0.46,1.025,1.026,1.025s1.025-0.461,1.025-1.025
								C26.844,388.876,26.385,388.417,25.818,388.417z"/>
						</g>
					</g>
					<g>
						<g>
							<path fill="#2E2E2E" d="M34.668,391.369c1.061,0,1.924-0.864,1.924-1.925c0-1.062-0.863-1.927-1.924-1.927
								s-1.924,0.864-1.924,1.927C32.744,390.505,33.607,391.369,34.668,391.369z M34.668,388.288c0.637,0,1.154,0.518,1.154,1.156
								c0,0.635-0.518,1.154-1.154,1.154s-1.154-0.52-1.154-1.154C33.514,388.806,34.031,388.288,34.668,388.288z"/>
						</g>
						<g>
							<path fill="#2E2E2E" d="M34.668,391.496c-1.131,0-2.052-0.921-2.052-2.052c0-1.133,0.921-2.056,2.052-2.056
								c1.132,0,2.053,0.923,2.053,2.056C36.721,390.575,35.8,391.496,34.668,391.496z M34.668,387.646
								c-0.99,0-1.795,0.806-1.795,1.798c0,0.988,0.805,1.796,1.795,1.796s1.796-0.808,1.796-1.796
								C36.464,388.452,35.658,387.646,34.668,387.646z M34.668,390.726c-0.707,0-1.282-0.574-1.282-1.281
								c0-0.709,0.575-1.285,1.282-1.285s1.283,0.576,1.283,1.285C35.951,390.151,35.375,390.726,34.668,390.726z M34.668,388.417
								c-0.565,0-1.025,0.459-1.025,1.027c0,0.564,0.46,1.025,1.025,1.025c0.566,0,1.026-0.461,1.026-1.025
								C35.694,388.876,35.234,388.417,34.668,388.417z"/>
						</g>
					</g>
				</g>
			</g>
			<g id="nyt_x5F_exporter_x5F_info_9_" display="none">
			</g>
		</g>
	</g>
	<g>
		<g>
			<g>
				<path fill="#2E2E2E" d="M10.513,73.414V62.538h-7.49c-1.627,0-2.95-1.325-2.95-2.951V29.95c0-1.626,1.323-2.95,2.95-2.95H56.79
					c1.627,0,2.95,1.324,2.95,2.95v29.636c0,1.626-1.323,2.951-2.95,2.951H20.492L10.513,73.414z M3.022,28.283
					c-0.92,0-1.668,0.748-1.668,1.667v29.636c0,0.919,0.748,1.667,1.668,1.667h8.772v8.863l8.134-8.863H56.79
					c0.919,0,1.667-0.749,1.667-1.667V29.95c0-0.919-0.748-1.667-1.667-1.667H3.022z"/>
			</g>
		</g>
		<g>
			<g id="Layer_1_7_">
				<g>
					<g>
						<g>
							<path fill="#2E2E2E" d="M30.051,32.959c-6.365,0-11.544,5.182-11.544,11.55c0,6.368,5.179,11.548,11.544,11.548
								s11.543-5.18,11.543-11.548C41.594,38.141,36.416,32.959,30.051,32.959z M30.051,55.287c-5.941,0-10.773-4.835-10.773-10.778
								s4.832-10.78,10.773-10.78c5.94,0,10.773,4.836,10.773,10.78S35.991,55.287,30.051,55.287z"/>
						</g>
						<g>
							<path fill="#2E2E2E" d="M30.051,56.186c-6.436,0-11.672-5.238-11.672-11.677c0-6.438,5.236-11.678,11.672-11.678
								s11.672,5.239,11.672,11.678C41.723,50.948,36.486,56.186,30.051,56.186z M30.051,33.088
								c-6.295,0-11.416,5.124-11.416,11.421c0,6.297,5.121,11.421,11.416,11.421c6.294,0,11.415-5.124,11.415-11.421
								C41.466,38.212,36.345,33.088,30.051,33.088z M30.051,55.416c-6.012,0-10.902-4.893-10.902-10.907
								s4.891-10.908,10.902-10.908s10.902,4.893,10.902,10.908S36.062,55.416,30.051,55.416z M30.051,33.858
								c-5.87,0-10.646,4.778-10.646,10.651s4.775,10.65,10.646,10.65c5.869,0,10.646-4.777,10.646-10.65
								S35.92,33.858,30.051,33.858z"/>
						</g>
					</g>
					<g>
						<g>
							<path fill="#2E2E2E" d="M27.742,40.274c0-1.062-0.863-1.924-1.924-1.924s-1.924,0.863-1.924,1.924
								c0,1.061,0.863,1.926,1.924,1.926S27.742,41.335,27.742,40.274z M25.818,41.429c-0.637,0-1.154-0.519-1.154-1.155
								c0-0.637,0.518-1.155,1.154-1.155c0.636,0,1.154,0.518,1.154,1.155C26.973,40.91,26.454,41.429,25.818,41.429z"/>
						</g>
						<g>
							<path fill="#2E2E2E" d="M25.818,42.328c-1.132,0-2.053-0.922-2.053-2.054c0-1.132,0.921-2.053,2.053-2.053
								c1.131,0,2.052,0.921,2.052,2.053C27.87,41.405,26.949,42.328,25.818,42.328z M25.818,38.478
								c-0.99,0-1.796,0.806-1.796,1.796c0,0.991,0.806,1.798,1.796,1.798s1.795-0.807,1.795-1.798
								C27.613,39.284,26.809,38.478,25.818,38.478z M25.818,41.558c-0.707,0-1.283-0.576-1.283-1.284
								c0-0.708,0.576-1.284,1.283-1.284s1.282,0.576,1.282,1.284C27.101,40.981,26.525,41.558,25.818,41.558z M25.818,39.248
								c-0.566,0-1.026,0.46-1.026,1.026c0,0.566,0.46,1.026,1.026,1.026c0.565,0,1.025-0.46,1.025-1.026
								C26.844,39.708,26.384,39.248,25.818,39.248z"/>
						</g>
					</g>
					<g>
						<g>
							<path fill="#2E2E2E" d="M30.051,45.664c-1.91,0-3.463,1.554-3.463,3.465c0,1.91,1.553,3.464,3.463,3.464
								c1.909,0,3.463-1.554,3.463-3.464C33.514,47.218,31.96,45.664,30.051,45.664z M30.051,51.823
								c-1.485,0-2.693-1.208-2.693-2.694c0-1.487,1.208-2.695,2.693-2.695c1.484,0,2.693,1.208,2.693,2.695
								C32.744,50.615,31.535,51.823,30.051,51.823z"/>
						</g>
						<g>
							<path fill="#2E2E2E" d="M30.051,52.722c-1.98,0-3.592-1.612-3.592-3.593c0-1.982,1.611-3.593,3.592-3.593
								s3.591,1.611,3.591,3.593C33.642,51.11,32.031,52.722,30.051,52.722z M30.051,45.792c-1.839,0-3.335,1.497-3.335,3.337
								c0,1.839,1.496,3.336,3.335,3.336s3.334-1.497,3.334-3.336C33.385,47.288,31.89,45.792,30.051,45.792z M30.051,51.951
								c-1.557,0-2.822-1.266-2.822-2.822c0-1.558,1.266-2.823,2.822-2.823c1.556,0,2.821,1.266,2.821,2.823
								C32.872,50.685,31.606,51.951,30.051,51.951z M30.051,46.562c-1.414,0-2.565,1.152-2.565,2.567
								c0,1.414,1.151,2.566,2.565,2.566s2.564-1.152,2.564-2.566C32.615,47.713,31.465,46.562,30.051,46.562z"/>
						</g>
					</g>
					<g>
						<g>
							<path fill="#2E2E2E" d="M33.898,38.35c-1.061,0-1.924,0.863-1.924,1.924c0,1.061,0.863,1.926,1.924,1.926
								s1.924-0.865,1.924-1.926C35.822,39.212,34.959,38.35,33.898,38.35z M33.898,41.429c-0.637,0-1.154-0.519-1.154-1.155
								c0-0.637,0.518-1.155,1.154-1.155s1.154,0.518,1.154,1.155C35.053,40.91,34.535,41.429,33.898,41.429z"/>
						</g>
						<g>
							<path fill="#2E2E2E" d="M33.898,42.328c-1.132,0-2.053-0.922-2.053-2.054c0-1.132,0.921-2.053,2.053-2.053
								s2.053,0.921,2.053,2.053C35.951,41.405,35.03,42.328,33.898,42.328z M33.898,38.478c-0.99,0-1.796,0.806-1.796,1.796
								c0,0.991,0.806,1.798,1.796,1.798s1.796-0.807,1.796-1.798C35.694,39.284,34.889,38.478,33.898,38.478z M33.898,41.558
								c-0.707,0-1.283-0.576-1.283-1.284c0-0.708,0.576-1.284,1.283-1.284s1.283,0.576,1.283,1.284
								C35.182,40.981,34.605,41.558,33.898,41.558z M33.898,39.248c-0.566,0-1.026,0.46-1.026,1.026
								c0,0.566,0.46,1.026,1.026,1.026s1.026-0.46,1.026-1.026C34.925,39.708,34.465,39.248,33.898,39.248z"/>
						</g>
					</g>
				</g>
			</g>
			<g id="nyt_x5F_exporter_x5F_info_8_" display="none">
			</g>
		</g>
	</g>
	<g>
		<g>
			<g>
				<path fill="#2E2E2E" d="M10.642,248.05v-10.877h-7.49c-1.626,0-2.95-1.325-2.95-2.951v-29.635c0-1.628,1.324-2.952,2.95-2.952
					H56.92c1.626,0,2.949,1.324,2.949,2.952v29.635c0,1.626-1.323,2.951-2.949,2.951H20.621L10.642,248.05z M3.151,202.917
					c-0.919,0-1.667,0.749-1.667,1.669v29.635c0,0.919,0.748,1.667,1.667,1.667h8.772v8.865l8.135-8.865H56.92
					c0.919,0,1.667-0.748,1.667-1.667v-29.635c0-0.921-0.748-1.669-1.667-1.669H3.151z"/>
			</g>
		</g>
		<g>
			<g>
				<g>
					<circle fill="#2E2E2E" cx="29.833" cy="228.402" r="1.549"/>
				</g>
			</g>
			<g>
				<g>
					<path fill="#2E2E2E" d="M30.035,209.43c-3.656,0-6.631,3.031-6.631,6.755c0,0.428,0.348,0.775,0.775,0.775
						c0.427,0,0.773-0.347,0.773-0.775c0-2.821,2.327-5.206,5.082-5.206c2.803,0,5.082,2.253,5.082,5.025
						c0,2.651-2.271,4.654-5.284,4.654c-0.427,0-0.774,0.346-0.774,0.773v3.098c0,0.427,0.348,0.775,0.774,0.775
						c0.428,0,0.774-0.348,0.774-0.775v-2.361c3.454-0.339,6.059-2.925,6.059-6.166C36.666,212.379,33.691,209.43,30.035,209.43z"/>
				</g>
			</g>
		</g>
	</g>
	<g>
		<g>
			<g>
				<path fill="#2E2E2E" d="M49.267,684.225l-9.98-10.875H2.988c-1.626,0-2.949-1.324-2.949-2.954v-29.635
					c0-1.626,1.323-2.95,2.949-2.95h53.769c1.626,0,2.95,1.324,2.95,2.95v29.635c0,1.63-1.324,2.954-2.95,2.954h-7.49V684.225z
					 M2.988,639.094c-0.919,0-1.667,0.749-1.667,1.667v29.635c0,0.923,0.748,1.671,1.667,1.671H39.85l8.135,8.862v-8.862h8.772
					c0.919,0,1.667-0.748,1.667-1.671v-29.635c0-0.918-0.748-1.667-1.667-1.667H2.988z"/>
			</g>
		</g>
		<g>
			<g id="Layer_1_9_">
				<g>
					<g>
						<g>
							<path fill="#2E2E2E" d="M29.924,643.516c-6.365,0-11.544,5.18-11.544,11.547c0,3.433,1.505,6.516,3.888,8.634
								c0.045,0.094,0.127,0.166,0.228,0.197c2.009,1.694,4.601,2.718,7.429,2.718c2.826,0,5.419-1.023,7.429-2.718
								c0.1-0.031,0.182-0.104,0.227-0.197c2.382-2.118,3.888-5.201,3.888-8.634C41.467,648.695,36.289,643.516,29.924,643.516z
								 M23.008,663.321c0.115-3.809,3.293-7.104,6.916-7.104c3.622,0,6.799,3.296,6.915,7.104c-1.873,1.57-4.285,2.521-6.915,2.521
								C27.293,665.842,24.881,664.892,23.008,663.321z M37.567,662.651c-0.448-3.928-3.827-7.204-7.644-7.204
								c-3.817,0-7.196,3.276-7.645,7.204c-1.934-1.95-3.13-4.631-3.13-7.589c0-5.941,4.833-10.777,10.774-10.777
								c5.94,0,10.773,4.836,10.773,10.777C40.697,658.021,39.501,660.701,37.567,662.651z"/>
						</g>
						<g>
							<path fill="#2E2E2E" d="M29.924,666.74c-2.734,0-5.395-0.971-7.494-2.733c-0.112-0.043-0.207-0.125-0.265-0.23
								c-2.487-2.22-3.913-5.393-3.913-8.714c0-6.438,5.235-11.676,11.672-11.676c6.436,0,11.672,5.238,11.672,11.676
								c0,3.321-1.427,6.494-3.914,8.714c-0.057,0.105-0.152,0.188-0.265,0.23C35.317,665.77,32.657,666.74,29.924,666.74z
								 M29.924,643.643c-6.295,0-11.416,5.123-11.416,11.42c0,3.255,1.401,6.367,3.846,8.538l0.03,0.039
								c0.029,0.064,0.083,0.109,0.15,0.133l0.044,0.023c2.055,1.733,4.664,2.688,7.346,2.688c2.681,0,5.29-0.955,7.346-2.688
								l0.043-0.023c0.067-0.023,0.121-0.068,0.15-0.133l0.031-0.039c2.443-2.171,3.845-5.283,3.845-8.538
								C41.339,648.766,36.218,643.643,29.924,643.643z M29.924,665.971c-2.553,0-5.038-0.907-6.998-2.552l-0.048-0.041l0.002-0.062
								c0.119-3.916,3.345-7.226,7.044-7.226c3.698,0,6.924,3.31,7.043,7.226l0.002,0.062l-0.047,0.041
								C34.961,665.063,32.476,665.971,29.924,665.971z M23.139,663.263c1.906,1.58,4.313,2.452,6.785,2.452
								c2.471,0,4.878-0.872,6.785-2.452c-0.147-3.756-3.241-6.915-6.785-6.915C26.379,656.348,23.285,659.507,23.139,663.263z
								 M22.377,662.931l-0.188-0.189c-2.042-2.06-3.167-4.785-3.167-7.679c0-6.014,4.891-10.906,10.902-10.906
								c6.011,0,10.901,4.893,10.901,10.906c0,2.894-1.124,5.619-3.167,7.679l-0.188,0.189l-0.03-0.264
								c-0.445-3.91-3.816-7.091-7.516-7.091s-7.071,3.181-7.517,7.091L22.377,662.931z M29.924,655.32
								c3.74,0,7.157,3.14,7.736,7.052c1.878-1.987,2.908-4.572,2.908-7.31c0-5.871-4.775-10.65-10.645-10.65
								c-5.87,0-10.646,4.779-10.646,10.65c0,2.737,1.031,5.322,2.91,7.31C22.766,658.46,26.183,655.32,29.924,655.32z"/>
						</g>
					</g>
					<g>
						<g>
							<path fill="#2E2E2E" d="M27.615,650.829c-0.213,0-0.385,0.172-0.385,0.385c0,0.863-0.677,1.539-1.54,1.539
								c-0.862,0-1.539-0.676-1.539-1.539c0-0.213-0.172-0.385-0.385-0.385s-0.385,0.172-0.385,0.385
								c0,1.295,1.015,2.309,2.309,2.309c1.295,0,2.31-1.014,2.31-2.309C28,651.001,27.828,650.829,27.615,650.829z"/>
						</g>
						<g>
							<path fill="#2E2E2E" d="M25.69,653.651c-1.366,0-2.437-1.07-2.437-2.438c0-0.283,0.23-0.515,0.513-0.515
								c0.283,0,0.513,0.231,0.513,0.515c0,0.791,0.62,1.41,1.411,1.41c0.792,0,1.411-0.619,1.411-1.41
								c0-0.283,0.23-0.515,0.514-0.515c0.282,0,0.513,0.231,0.513,0.515C28.128,652.581,27.057,653.651,25.69,653.651z
								 M23.767,650.958c-0.142,0-0.257,0.115-0.257,0.256c0,1.223,0.958,2.182,2.181,2.182c1.224,0,2.181-0.959,2.181-2.182
								c0-0.141-0.115-0.256-0.256-0.256c-0.143,0-0.257,0.115-0.257,0.256c0,0.936-0.732,1.668-1.668,1.668
								c-0.935,0-1.667-0.732-1.667-1.668C24.023,651.073,23.908,650.958,23.767,650.958z"/>
						</g>
					</g>
					<g>
						<g>
							<path fill="#2E2E2E" d="M36.08,650.829c-0.213,0-0.385,0.172-0.385,0.385c0,0.863-0.676,1.539-1.539,1.539
								s-1.539-0.676-1.539-1.539c0-0.213-0.172-0.385-0.385-0.385s-0.385,0.172-0.385,0.385c0,1.295,1.014,2.309,2.309,2.309
								c1.294,0,2.309-1.014,2.309-2.309C36.465,651.001,36.293,650.829,36.08,650.829z"/>
						</g>
						<g>
							<path fill="#2E2E2E" d="M34.156,653.651c-1.367,0-2.438-1.07-2.438-2.438c0-0.283,0.23-0.515,0.514-0.515
								c0.282,0,0.513,0.231,0.513,0.515c0,0.791,0.62,1.41,1.411,1.41s1.41-0.619,1.41-1.41c0-0.283,0.23-0.515,0.514-0.515
								s0.513,0.231,0.513,0.515C36.593,652.581,35.522,653.651,34.156,653.651z M32.232,650.958c-0.142,0-0.257,0.115-0.257,0.256
								c0,1.223,0.958,2.182,2.181,2.182s2.18-0.959,2.18-2.182c0-0.141-0.114-0.256-0.256-0.256s-0.257,0.115-0.257,0.256
								c0,0.936-0.732,1.668-1.667,1.668c-0.936,0-1.668-0.732-1.668-1.668C32.488,651.073,32.373,650.958,32.232,650.958z"/>
						</g>
					</g>
				</g>
			</g>
			<g id="nyt_x5F_exporter_x5F_info_10_" display="none">
			</g>
		</g>
	</g>
	<g>
		<g>
			<g>
				<path fill="#2E2E2E" d="M49.56,160.791l-9.979-10.877H3.281c-1.626,0-2.949-1.324-2.949-2.951v-29.635
					c0-1.627,1.323-2.952,2.949-2.952H57.05c1.627,0,2.95,1.325,2.95,2.952v29.635c0,1.627-1.323,2.951-2.95,2.951h-7.49V160.791z
					 M3.281,115.659c-0.919,0-1.667,0.75-1.667,1.668v29.635c0,0.92,0.748,1.668,1.667,1.668h36.862l8.134,8.863v-8.863h8.772
					c0.919,0,1.667-0.748,1.667-1.668v-29.635c0-0.919-0.748-1.668-1.667-1.668H3.281z"/>
			</g>
		</g>
		<g>
			<g>
				<path fill="#2E2E2E" d="M40.384,125.567c-0.752,0.335-1.562,0.559-2.407,0.661c0.864-0.519,1.529-1.34,1.842-2.319
					c-0.811,0.479-1.705,0.828-2.661,1.017c-0.765-0.814-1.854-1.326-3.06-1.326c-2.316,0-4.193,1.878-4.193,4.194
					c0,0.329,0.036,0.649,0.107,0.957c-3.484-0.176-6.573-1.844-8.641-4.381c-0.361,0.618-0.569,1.339-0.569,2.107
					c0,1.456,0.74,2.739,1.866,3.492c-0.688-0.021-1.333-0.213-1.898-0.525c-0.001,0.019-0.001,0.035-0.001,0.052
					c0,2.035,1.445,3.729,3.363,4.114c-0.353,0.099-0.722,0.148-1.104,0.148c-0.27,0-0.533-0.025-0.789-0.074
					c0.533,1.665,2.082,2.877,3.916,2.911c-1.435,1.125-3.242,1.797-5.207,1.797c-0.338,0-0.673-0.021-1-0.062
					c1.855,1.192,4.06,1.886,6.428,1.886c7.711,0,11.929-6.393,11.929-11.935c0-0.181-0.003-0.363-0.011-0.543
					C39.111,127.148,39.82,126.409,40.384,125.567z"/>
			</g>
		</g>
	</g>
	<g>
		<g>
			<g>
				<path fill="#2E2E2E" d="M49.381,335.265l-9.979-10.876H3.104c-1.627,0-2.95-1.324-2.95-2.951v-29.635
					c0-1.628,1.323-2.952,2.95-2.952h53.768c1.627,0,2.951,1.324,2.951,2.952v29.635c0,1.627-1.324,2.951-2.951,2.951h-7.49V335.265
					z M3.104,290.134c-0.92,0-1.668,0.749-1.668,1.669v29.635c0,0.919,0.748,1.668,1.668,1.668h36.861l8.134,8.864v-8.864h8.772
					c0.92,0,1.668-0.749,1.668-1.668v-29.635c0-0.92-0.748-1.669-1.668-1.669H3.104z"/>
			</g>
		</g>
		<g>
			<g>
				<path fill="#2E2E2E" d="M35.368,297.748H24.606c-1.869,0-3.392,1.521-3.392,3.393v3.581v7.186c0,1.871,1.522,3.392,3.392,3.392
					h10.762c1.871,0,3.392-1.521,3.392-3.392v-7.186v-3.581C38.76,299.269,37.239,297.748,35.368,297.748z M36.341,299.771
					l0.389-0.002v0.385v2.591l-2.964,0.01l-0.011-2.976L36.341,299.771z M27.483,304.722c0.562-0.777,1.473-1.288,2.505-1.288
					c1.03,0,1.941,0.511,2.502,1.288c0.367,0.507,0.585,1.128,0.585,1.8c0,1.707-1.386,3.092-3.087,3.092
					c-1.705,0-3.089-1.385-3.089-3.092C26.9,305.85,27.117,305.229,27.483,304.722z M37.05,311.907c0,0.929-0.755,1.682-1.682,1.682
					H24.606c-0.927,0-1.682-0.753-1.682-1.682v-7.186h2.619c-0.226,0.557-0.354,1.166-0.354,1.8c0,2.648,2.152,4.803,4.799,4.803
					c2.645,0,4.797-2.155,4.797-4.803c0-0.634-0.129-1.243-0.354-1.8h2.619V311.907z"/>
			</g>
		</g>
	</g>
	<g>
		<g>
			<g>
				<path fill="#2E2E2E" d="M49.229,509.714l-9.98-10.877H2.95c-1.627,0-2.95-1.322-2.95-2.95v-29.635
					c0-1.628,1.323-2.952,2.95-2.952h53.769c1.626,0,2.949,1.324,2.949,2.952v29.635c0,1.628-1.323,2.95-2.949,2.95h-7.49V509.714z
					 M2.95,464.583c-0.919,0-1.667,0.748-1.667,1.669v29.635c0,0.921,0.748,1.669,1.667,1.669h36.861l8.134,8.862v-8.862h8.773
					c0.919,0,1.667-0.748,1.667-1.669v-29.635c0-0.921-0.748-1.669-1.667-1.669H2.95z"/>
			</g>
		</g>
		<g>
			<g>
				<path fill="#2E2E2E" d="M37.687,472.123H21.981c-0.538,0-0.974,0.436-0.974,0.975v15.711c0,0.539,0.436,0.977,0.974,0.977h8.455
					v-6.84h-2.3v-2.667h2.3v-1.966c0-2.28,1.393-3.522,3.427-3.522c0.975,0,1.812,0.072,2.057,0.105v2.384h-1.412
					c-1.106,0-1.32,0.527-1.32,1.299v1.7h2.639l-0.344,2.667h-2.295v6.84h4.499c0.538,0,0.974-0.438,0.974-0.977v-15.711
					C38.66,472.559,38.225,472.123,37.687,472.123z"/>
			</g>
		</g>
	</g>
	<g>
		<path fill="#2E2E2E" d="M30.031,84.836c-0.566,0-1.025-0.459-1.025-1.027V70.462c0-0.566,0.459-1.026,1.025-1.026
			c0.567,0,1.026,0.46,1.026,1.026V83.81C31.058,84.377,30.599,84.836,30.031,84.836z"/>
	</g>
	<g>
		<path fill="#2E2E2E" d="M30.031,19.401c-0.566,0-1.025-0.459-1.025-1.027V5.026C29.006,4.46,29.465,4,30.031,4
			c0.567,0,1.026,0.46,1.026,1.026v13.348C31.058,18.941,30.599,19.401,30.031,19.401z"/>
	</g>
	<g>
		<path fill="#2E2E2E" d="M30.031,107.678c-0.566,0-1.025-0.46-1.025-1.027V93.304c0-0.567,0.459-1.026,1.025-1.026
			c0.567,0,1.026,0.459,1.026,1.026v13.348C31.058,107.218,30.599,107.678,30.031,107.678z"/>
	</g>
	<g>
		<path fill="#2E2E2E" d="M30.031,172.096c-0.566,0-1.025-0.46-1.025-1.027v-13.347c0-0.567,0.459-1.027,1.025-1.027
			c0.567,0,1.026,0.46,1.026,1.027v13.347C31.058,171.635,30.599,172.096,30.031,172.096z"/>
	</g>
	<g>
		<path fill="#2E2E2E" d="M30.031,194.937c-0.566,0-1.025-0.459-1.025-1.026v-13.348c0-0.567,0.459-1.026,1.025-1.026
			c0.567,0,1.026,0.459,1.026,1.026v13.348C31.058,194.477,30.599,194.937,30.031,194.937z"/>
	</g>
	<g>
		<path fill="#2E2E2E" d="M30.031,259.354c-0.566,0-1.025-0.459-1.025-1.026V244.98c0-0.567,0.459-1.026,1.025-1.026
			c0.567,0,1.026,0.459,1.026,1.026v13.348C31.058,258.895,30.599,259.354,30.031,259.354z"/>
	</g>
	<g>
		<path fill="#2E2E2E" d="M30.031,282.196c-0.566,0-1.025-0.46-1.025-1.027v-13.347c0-0.568,0.459-1.027,1.025-1.027
			c0.567,0,1.026,0.459,1.026,1.027v13.347C31.058,281.735,30.599,282.196,30.031,282.196z"/>
	</g>
	<g>
		<path fill="#2E2E2E" d="M30.031,346.613c-0.566,0-1.025-0.46-1.025-1.027v-13.347c0-0.567,0.459-1.027,1.025-1.027
			c0.567,0,1.026,0.46,1.026,1.027v13.347C31.058,346.153,30.599,346.613,30.031,346.613z"/>
	</g>
	<g>
		<path fill="#2E2E2E" d="M30.031,369.455c-0.566,0-1.025-0.459-1.025-1.027V355.08c0-0.566,0.459-1.027,1.025-1.027
			c0.567,0,1.026,0.461,1.026,1.027v13.348C31.058,368.996,30.599,369.455,30.031,369.455z"/>
	</g>
	<g>
		<path fill="#2E2E2E" d="M30.031,433.701c-0.566,0-1.025-0.461-1.025-1.027v-13.347c0-0.566,0.459-1.027,1.025-1.027
			c0.567,0,1.026,0.461,1.026,1.027v13.347C31.058,433.24,30.599,433.701,30.031,433.701z"/>
	</g>
	<g>
		<path fill="#2E2E2E" d="M30.031,456.543c-0.566,0-1.025-0.461-1.025-1.027v-13.347c0-0.568,0.459-1.027,1.025-1.027
			c0.567,0,1.026,0.459,1.026,1.027v13.347C31.058,456.082,30.599,456.543,30.031,456.543z"/>
	</g>
	<g>
		<path fill="#2E2E2E" d="M30.031,520.96c-0.566,0-1.025-0.461-1.025-1.027v-13.347c0-0.568,0.459-1.027,1.025-1.027
			c0.567,0,1.026,0.459,1.026,1.027v13.347C31.058,520.499,30.599,520.96,30.031,520.96z"/>
	</g>
	<g>
		<path fill="#2E2E2E" d="M30.031,543.8c-0.566,0-1.025-0.459-1.025-1.025v-13.347c0-0.568,0.459-1.027,1.025-1.027
			c0.567,0,1.026,0.459,1.026,1.027v13.347C31.058,543.341,30.599,543.8,30.031,543.8z"/>
	</g>
	<g>
		<g>
			<g>
				<path fill="#2E2E2E" d="M10.456,596.947v-10.875h-7.49c-1.627,0-2.95-1.325-2.95-2.95v-29.636c0-1.627,1.323-2.952,2.95-2.952
					h53.768c1.627,0,2.95,1.325,2.95,2.952v29.636c0,1.625-1.323,2.95-2.95,2.95H20.436L10.456,596.947z M2.966,551.818
					c-0.92,0-1.668,0.748-1.668,1.668v29.636c0,0.918,0.748,1.666,1.668,1.666h8.772v8.864l8.134-8.864h36.861
					c0.92,0,1.667-0.748,1.667-1.666v-29.636c0-0.92-0.747-1.668-1.667-1.668H2.966z"/>
			</g>
		</g>
		<g>
			<g>
				<path fill="#2E2E2E" d="M40.057,563.42h-4.213l1.138-4.25c0.113-0.424-0.138-0.857-0.56-0.971
					c-0.423-0.113-0.857,0.137-0.971,0.561l-1.248,4.66h-6.422l1.139-4.25c0.112-0.424-0.139-0.857-0.561-0.971
					s-0.857,0.137-0.971,0.561l-1.248,4.66h-4.638c-0.437,0-0.792,0.355-0.792,0.791c0,0.438,0.355,0.793,0.792,0.793h4.214
					l-1.736,6.483h-4.639c-0.437,0-0.791,0.354-0.791,0.791s0.354,0.793,0.791,0.793h4.215l-1.139,4.25
					c-0.113,0.424,0.138,0.857,0.56,0.971c0.069,0.018,0.138,0.027,0.206,0.027c0.35,0,0.67-0.234,0.764-0.588l1.249-4.66h6.423
					l-1.139,4.25c-0.113,0.424,0.137,0.857,0.56,0.971c0.069,0.018,0.138,0.027,0.206,0.027c0.35,0,0.67-0.234,0.764-0.588
					l1.248-4.66h4.639c0.438,0,0.792-0.355,0.792-0.793s-0.354-0.791-0.792-0.791h-4.214l1.735-6.483h4.639
					c0.438,0,0.792-0.355,0.792-0.793C40.849,563.775,40.494,563.42,40.057,563.42z M32.043,571.487H25.62l1.736-6.483h6.423
					L32.043,571.487z"/>
			</g>
		</g>
	</g>
	<g>
		<path fill="#2E2E2E" d="M30.031,608.128c-0.566,0-1.025-0.459-1.025-1.025v-13.348c0-0.567,0.459-1.026,1.025-1.026
			c0.567,0,1.026,0.459,1.026,1.026v13.348C31.058,607.669,30.599,608.128,30.031,608.128z"/>
	</g>
	<g>
		<path fill="#2E2E2E" d="M30.031,630.97c-0.566,0-1.025-0.459-1.025-1.025v-13.348c0-0.567,0.459-1.026,1.025-1.026
			c0.567,0,1.026,0.459,1.026,1.026v13.348C31.058,630.511,30.599,630.97,30.031,630.97z"/>
	</g>
	<g>
		<path fill="#2E2E2E" d="M30.031,695.158c-0.566,0-1.025-0.459-1.025-1.025v-13.349c0-0.566,0.459-1.025,1.025-1.025
			c0.567,0,1.026,0.459,1.026,1.025v13.349C31.058,694.699,30.599,695.158,30.031,695.158z"/>
	</g>
</g>
</svg>
