<?xml version="1.0" encoding="utf-8"?>
<!-- Generator: Adobe Illustrator 16.0.3, SVG Export Plug-In . SVG Version: 6.00 Build 0)  -->
<!DOCTYPE svg PUBLIC "-//W3C//DTD SVG 1.1//EN" "http://www.w3.org/Graphics/SVG/1.1/DTD/svg11.dtd">
<svg version="1.1" id="Layer_1" xmlns="http://www.w3.org/2000/svg" xmlns:xlink="http://www.w3.org/1999/xlink" x="0px" y="0px"
	 width="90px" height="72px" viewBox="0 0 90 72" enable-background="new 0 0 90 72" xml:space="preserve">
<g>
	<path fill="#2E2E2E" d="M82.5,0H27.783C23.788,0,21,2.736,21,6.652v5.542C10.722,13.386,0,20.85,0,39v12c0,11.188,9.813,21,21,21
		h22.5h5.479H49.5c0.208,0,0.407-0.044,0.589-0.121c3.147-0.574,5.411-3.544,5.411-7.379c0-1.723-0.472-3.261-1.26-4.5H64.5
		c3.996,0,7.5-3.504,7.5-7.5c0-1.664-0.63-3.223-1.629-4.5H82.5c3.996,0,7.5-3.504,7.5-7.5v-33C90,3.504,86.496,0,82.5,0z M24,6.652
		C24,4.399,25.449,3,27.783,3H82.5C84.812,3,87,5.187,87,7.5V15H43.257c-1.733-1.926-4.522-3-7.257-3H24V6.652z M69,52.5
		c0,2.312-2.188,4.5-4.5,4.5h-15c-0.064,0-0.12,0.029-0.184,0.038C49.203,57.029,49.096,57,48.979,57H39c-0.828,0-1.5,0.672-1.5,1.5
		S38.172,60,39,60h9.979c2.312,0,3.521,2.264,3.521,4.5S51.29,69,48.979,69H43.5H21c-9.59,0-18-8.411-18-18V39
		c0-22.842,17.493-24,21-24h12c2.949,0,6,1.683,6,4.5v3c0,2.924-3.092,4.5-6,4.5h-7.5c-0.627,0-1.188,0.391-1.407,0.979
		c-0.028,0.079-2.124,5.588-5.632,8.785c-0.01,0.01-0.02,0.016-0.029,0.025C20.005,38.08,18.353,39,16.5,39
		c-0.828,0-1.5,0.672-1.5,1.5s0.672,1.5,1.5,1.5c1.657,0,3.163-0.486,4.527-1.251C21.171,44.639,24.59,48,28.5,48H39h25.5
		C66.812,48,69,50.188,69,52.5z M82.5,45h-18H39H28.5c-2.313,0-4.5-2.188-4.5-4.5v-2.039c2.868-2.856,4.739-6.674,5.509-8.461H36
		c4.364,0,9-2.628,9-7.5v-3c0-0.525-0.066-1.023-0.173-1.5H87v22.5C87,42.812,84.812,45,82.5,45z"/>
	<path fill="#2E2E2E" d="M79.5,24h-12c-0.828,0-1.5,0.672-1.5,1.5s0.672,1.5,1.5,1.5h12c0.828,0,1.5-0.672,1.5-1.5
		S80.328,24,79.5,24z"/>
</g>
</svg>
