<?xml version="1.0" encoding="utf-8"?>
<!-- Generator: Adobe Illustrator 16.0.3, SVG Export Plug-In . SVG Version: 6.00 Build 0)  -->
<!DOCTYPE svg PUBLIC "-//W3C//DTD SVG 1.1//EN" "http://www.w3.org/Graphics/SVG/1.1/DTD/svg11.dtd">
<svg version="1.1" id="Layer_1" xmlns="http://www.w3.org/2000/svg" xmlns:xlink="http://www.w3.org/1999/xlink" x="0px" y="0px"
	 width="76px" height="76px" viewBox="0 0 76 76" enable-background="new 0 0 76 76" xml:space="preserve">
<g>
	<g id="Layer_1_1_">
		<g>
			<path fill="#010101" d="M62.066,48.134c-1.79,0-3.493,0.352-5.067,0.967L45.331,25.76c3.955-2.46,6.602-6.834,6.602-11.827
				C51.933,6.251,45.681,0,38,0c-7.682,0-13.933,6.251-13.933,13.933c0,4.992,2.647,9.366,6.602,11.827L19,49.101
				c-1.573-0.615-3.278-0.967-5.067-0.967C6.25,48.134,0,54.386,0,62.067C0,69.748,6.25,76,13.933,76
				c7.256,0,13.227-5.576,13.869-12.667h20.395C48.841,70.424,54.811,76,62.066,76c7.681,0,13.933-6.252,13.933-13.933
				C75.999,54.386,69.747,48.134,62.066,48.134z M26.6,13.933c0-6.285,5.115-11.4,11.4-11.4s11.4,5.115,11.4,11.4
				c0,6.285-5.115,11.4-11.4,11.4S26.6,20.218,26.6,13.933z M32.933,26.899c1.574,0.617,3.278,0.968,5.067,0.968
				c1.789,0,3.494-0.351,5.067-0.968L54.735,50.24c-3.615,2.249-6.133,6.099-6.539,10.56H27.802
				c-0.405-4.461-2.922-8.311-6.54-10.56L32.933,26.899z M13.933,73.467c-6.285,0-11.4-5.115-11.4-11.399
				c0-6.285,5.115-11.4,11.4-11.4c6.285,0,11.4,5.115,11.4,11.4C25.333,68.352,20.218,73.467,13.933,73.467z M62.066,73.467
				c-6.285,0-11.4-5.115-11.4-11.399c0-6.285,5.115-11.4,11.4-11.4c6.284,0,11.399,5.115,11.399,11.4
				C73.466,68.352,68.351,73.467,62.066,73.467z"/>
		</g>
	</g>
	<g id="nyt_x5F_exporter_x5F_info" display="none">
	</g>
</g>
</svg>
