<?xml version="1.0" encoding="utf-8"?>
<!-- Generator: Adobe Illustrator 16.0.3, SVG Export Plug-In . SVG Version: 6.00 Build 0)  -->
<!DOCTYPE svg PUBLIC "-//W3C//DTD SVG 1.1//EN" "http://www.w3.org/Graphics/SVG/1.1/DTD/svg11.dtd">
<svg version="1.1" id="Layer_1" xmlns="http://www.w3.org/2000/svg" xmlns:xlink="http://www.w3.org/1999/xlink" x="0px" y="0px"
	 width="76px" height="79px" viewBox="0 0 76 79" enable-background="new 0 0 76 79" xml:space="preserve">
<g>
	<path fill="#2E2E2E" d="M74.667,38.667h-4.034C69.949,22.082,56.586,8.718,40,8.034v-6.7C40,0.598,39.402,0,38.666,0
		c-0.735,0-1.333,0.598-1.333,1.333v6.7C20.748,8.718,7.384,22.082,6.7,38.667H1.333C0.598,38.667,0,39.266,0,40.001
		s0.598,1.333,1.333,1.333H6.7C7.384,57.92,20.748,71.283,37.333,71.967v5.367c0,0.735,0.598,1.333,1.333,1.333
		c0.736,0,1.334-0.598,1.334-1.333v-5.367c16.586-0.684,29.949-14.047,30.633-30.633h4.034c0.735,0,1.333-0.598,1.333-1.333
		S75.402,38.667,74.667,38.667z M67.966,38.667H54.599C53.954,30.909,47.758,24.713,40,24.068V10.701
		C55.116,11.381,67.286,23.551,67.966,38.667z M37.333,38.667H25.401c0.628-6.289,5.644-11.306,11.933-11.933V38.667z
		 M37.333,41.334v11.933c-6.289-0.628-11.306-5.644-11.933-11.933H37.333z M40,41.334h11.933C51.305,47.623,46.289,52.639,40,53.267
		V41.334z M40,38.667V26.735c6.289,0.628,11.305,5.644,11.933,11.933H40z M37.333,10.701v13.366
		c-7.759,0.646-13.955,6.842-14.599,14.601H9.367C10.047,23.551,22.217,11.381,37.333,10.701z M9.367,41.334h13.366
		c0.645,7.758,6.841,13.954,14.599,14.599V69.3C22.217,68.62,10.047,56.45,9.367,41.334z M40,69.3V55.933
		c7.758-0.645,13.954-6.841,14.599-14.599h13.367C67.286,56.45,55.116,68.62,40,69.3z"/>
</g>
</svg>
