<?xml version="1.0" encoding="utf-8"?>
<!-- Generator: Adobe Illustrator 16.0.3, SVG Export Plug-In . SVG Version: 6.00 Build 0)  -->
<!DOCTYPE svg PUBLIC "-//W3C//DTD SVG 1.1//EN" "http://www.w3.org/Graphics/SVG/1.1/DTD/svg11.dtd">
<svg version="1.1" id="Layer_1" xmlns="http://www.w3.org/2000/svg" xmlns:xlink="http://www.w3.org/1999/xlink" x="0px" y="0px"
	 width="76px" height="76px" viewBox="0 0 76 76" enable-background="new 0 0 76 76" xml:space="preserve">
<g>
	<g id="Layer_1_1_">
		<g>
			<path fill="#2E2E2E" d="M4.055,26.769C1.781,27.418,0,29.782,0,32.147v2.633h17.194h3.249H34.78v-2.576
				c0-2.484-1.626-4.821-3.813-5.445l-7.78-1.995v-2.639c3.214-2.083,5.376-5.875,5.376-10.21C28.563,5.344,23.614,0,17.53,0
				C11.446,0,6.497,5.344,6.497,11.914c0,4.209,2.037,7.907,5.096,10.027v2.83L4.055,26.769z M17.53,2.576
				c3.904,0,7.189,2.94,8.158,6.917c-0.572,0.249-1.397,0.389-2.324,0.255c-0.806-0.12-2.28-0.541-3.076-2.02
				c-0.192-0.359-0.543-0.606-0.947-0.665c-0.399-0.059-0.81,0.076-1.097,0.364c-2.588,2.586-6.522,2.679-8.77,1.651
				C10.564,5.312,13.763,2.576,17.53,2.576z M9.074,11.914c0-0.08,0.009-0.157,0.01-0.237c2.901,1.023,6.862,0.72,9.844-1.456
				c1.019,1.102,2.436,1.835,4.062,2.075c0.381,0.057,0.76,0.083,1.131,0.083c0.655,0,1.275-0.105,1.856-0.269
				c-0.096,5.059-3.844,9.144-8.448,9.144C12.868,21.253,9.074,17.064,9.074,11.914z M17.53,23.829c1.069,0,2.101-0.173,3.08-0.481
				v3.415l9.683,2.484c1.053,0.3,1.911,1.626,1.911,2.958H20.443h-3.249H2.576v-0.057c0-1.212,1.023-2.569,2.163-2.895l9.43-2.498
				V23.26C15.23,23.627,16.358,23.829,17.53,23.829z"/>
			<path fill="#2E2E2E" d="M76,32.204c0-2.484-1.625-4.821-3.812-5.445l-7.78-1.995v-2.639c3.214-2.083,5.376-5.875,5.376-10.21
				C69.783,5.344,64.835,0,58.751,0c-6.083,0-11.033,5.344-11.033,11.914c0,4.209,2.036,7.907,5.096,10.027v2.83l-7.537,1.996
				c-2.276,0.65-4.056,3.014-4.056,5.38v2.633h17.193h3.249H76V32.204z M58.751,2.576c3.904,0,7.188,2.94,8.156,6.917
				c-0.57,0.249-1.398,0.389-2.322,0.255c-0.808-0.12-2.28-0.541-3.076-2.02c-0.191-0.359-0.544-0.606-0.946-0.665
				c-0.401-0.059-0.811,0.076-1.099,0.364c-2.587,2.586-6.52,2.679-8.769,1.651C51.784,5.312,54.982,2.576,58.751,2.576z
				 M50.294,11.914c0-0.08,0.009-0.157,0.01-0.237c2.902,1.023,6.862,0.72,9.844-1.456c1.019,1.102,2.437,1.835,4.063,2.075
				c0.38,0.057,0.76,0.083,1.129,0.083c0.657,0,1.276-0.105,1.857-0.269c-0.096,5.059-3.845,9.144-8.448,9.144
				C54.087,21.253,50.294,17.064,50.294,11.914z M61.663,32.204h-3.249H43.797v-0.057c0-1.212,1.022-2.569,2.163-2.895l9.43-2.498
				V23.26c1.061,0.367,2.189,0.569,3.361,0.569c1.069,0,2.101-0.173,3.079-0.481v3.415l9.685,2.484
				c1.051,0.3,1.909,1.626,1.909,2.958H61.663z"/>
			<path fill="#2E2E2E" d="M48.388,52.855c0-6.57-4.948-11.914-11.032-11.914c-6.084,0-11.033,5.344-11.033,11.914
				c0,4.106,1.935,7.736,4.873,9.88v2.884l-7.313,2.091c-2.275,0.649-4.055,3.012-4.055,5.379V76h15.906h3.248h15.905v-2.912
				c0-2.366-1.784-4.731-4.06-5.38l-7.31-2.089v-2.886C46.453,60.592,48.388,56.962,48.388,52.855z M37.356,43.518
				c3.874,0,7.139,2.893,8.136,6.824c-0.586,0.271-1.451,0.43-2.406,0.29c-0.778-0.114-2.196-0.521-2.97-1.961
				c-0.192-0.359-0.544-0.604-0.947-0.665c-0.401-0.061-0.811,0.076-1.099,0.363c-2.587,2.588-6.521,2.68-8.77,1.651
				C30.39,46.253,33.588,43.518,37.356,43.518z M28.899,52.855c0-0.08,0.009-0.159,0.01-0.238c2.9,1.021,6.863,0.72,9.845-1.457
				c0.999,1.073,2.377,1.789,3.952,2.021c0.367,0.055,0.732,0.081,1.094,0.081c0.704,0,1.381-0.118,2.006-0.308
				c-0.048,5.103-3.819,9.24-8.452,9.24C32.693,62.194,28.899,58.004,28.899,52.855z M50.119,70.186
				c1.167,0.334,2.191,1.689,2.191,2.902v0.336H38.981h-3.248H22.402v-0.336c0-1.213,1.021-2.568,2.187-2.902l9.182-2.623v-3.45
				c1.125,0.42,2.329,0.658,3.585,0.658c1.256,0,2.459-0.238,3.585-0.658v3.45L50.119,70.186z"/>
			<path fill="#2E2E2E" d="M20.4,46.189l-8.12-8.121c-0.504-0.503-1.318-0.503-1.822,0c-0.504,0.503-0.504,1.318,0,1.821l8.12,8.121
				c0.251,0.252,0.581,0.377,0.911,0.377c0.33,0,0.66-0.125,0.911-0.377C20.904,47.509,20.904,46.693,20.4,46.189z"/>
			<path fill="#2E2E2E" d="M56.133,48.014l8.12-8.123c0.504-0.503,0.504-1.317,0-1.82c-0.503-0.504-1.318-0.504-1.821,0l-8.12,8.121
				c-0.504,0.504-0.504,1.317,0,1.822c0.251,0.25,0.58,0.377,0.911,0.377C55.551,48.388,55.881,48.264,56.133,48.014z"/>
		</g>
	</g>
	<g id="nyt_x5F_exporter_x5F_info" display="none">
	</g>
</g>
</svg>
