<?xml version="1.0" encoding="utf-8"?>
<!-- Generator: Adobe Illustrator 16.0.3, SVG Export Plug-In . SVG Version: 6.00 Build 0)  -->
<!DOCTYPE svg PUBLIC "-//W3C//DTD SVG 1.1//EN" "http://www.w3.org/Graphics/SVG/1.1/DTD/svg11.dtd">
<svg version="1.1" id="Layer_1" xmlns="http://www.w3.org/2000/svg" xmlns:xlink="http://www.w3.org/1999/xlink" x="0px" y="0px"
	 width="85px" height="79px" viewBox="0 0 85 79" enable-background="new 0 0 85 79" xml:space="preserve">
<g>
	<path fill="#2E2E2E" d="M82.045,48.673L70.712,23.174c-0.072-0.159-0.171-0.304-0.294-0.427l-5.445-5.445L59.906,3.43
		c-0.071-0.194-0.182-0.37-0.329-0.516c-3.231-3.231-10.597-3.231-13.829,0c-0.266,0.266-0.415,0.626-0.415,1.003v14.167
		c0,0.783,0.634,1.417,1.417,1.417s1.417-0.634,1.417-1.417V4.561c2.274-1.688,7.083-1.635,9.195,0.161l5.057,13.847
		c0.069,0.194,0.183,0.37,0.329,0.516l5.48,5.481l8.096,18.216c-3.181-2.175-7.022-3.449-11.157-3.449c-7.22,0-13.53,3.889-17,9.671
		V28.606c4.383,0.997,7.083,3.077,7.083,5.06c0,0.782,0.634,1.417,1.417,1.417c0.782,0,1.416-0.634,1.416-1.417
		c0-4.845-6.698-8.5-15.583-8.5c-8.884,0-15.583,3.655-15.583,8.5c0,0.782,0.633,1.417,1.417,1.417s1.417-0.634,1.417-1.417
		c0-1.983,2.701-4.062,7.083-5.06v20.397c-3.47-5.782-9.781-9.671-17-9.671c-4.135,0-7.977,1.277-11.158,3.449l8.096-18.216
		l5.48-5.481c0.136-0.136,0.242-0.297,0.315-0.475l5.549-13.875c2.098-1.833,6.473-1.89,8.718-0.18v13.526
		c0,0.781,0.633,1.417,1.417,1.417s1.417-0.635,1.417-1.417V3.915c0-0.375-0.15-0.737-0.415-1.001
		c-3.24-3.242-10.096-3.242-13.336,0C25.779,3.05,25.673,3.211,25.6,3.388l-5.559,13.897l-5.46,5.461
		c-0.123,0.123-0.223,0.268-0.293,0.427L2.955,48.673c-0.03,0.066-0.027,0.136-0.045,0.202C1.076,51.88,0,55.396,0,59.167
		C0,70.103,8.896,79,19.833,79s19.833-8.897,19.833-19.833V28.143C40.566,28.051,41.511,28,42.5,28s1.934,0.051,2.833,0.143v31.024
		C45.333,70.103,54.229,79,65.167,79C76.104,79,85,70.103,85,59.167c0-3.771-1.076-7.284-2.911-10.289
		C82.072,48.809,82.075,48.739,82.045,48.673z M19.833,76.167c-9.375,0-17-7.626-17-17c0-9.375,7.625-17,17-17
		c9.374,0,17,7.625,17,17C36.833,68.541,29.208,76.167,19.833,76.167z M65.167,76.167c-9.375,0-17-7.626-17-17
		c0-9.375,7.625-17,17-17c9.374,0,17,7.625,17,17C82.167,68.541,74.541,76.167,65.167,76.167z"/>
	<path fill="#2E2E2E" d="M19.278,47.586c-6.691,0-12.134,5.442-12.134,12.133c0,0.783,0.634,1.416,1.417,1.416
		c0.784,0,1.417-0.633,1.417-1.416c0-5.127,4.17-9.3,9.3-9.3c0.784,0,1.417-0.635,1.417-1.417
		C20.694,48.219,20.062,47.586,19.278,47.586z"/>
	<path fill="#2E2E2E" d="M65.723,47.586c-6.691,0-12.134,5.442-12.134,12.133c0,0.783,0.632,1.416,1.416,1.416
		c0.783,0,1.417-0.633,1.417-1.416c0-5.127,4.171-9.3,9.301-9.3c0.783,0,1.417-0.635,1.417-1.417
		C67.14,48.219,66.503,47.586,65.723,47.586z"/>
</g>
</svg>
