<?xml version="1.0" encoding="utf-8"?>
<!-- Generator: Adobe Illustrator 16.0.3, SVG Export Plug-In . SVG Version: 6.00 Build 0)  -->
<!DOCTYPE svg PUBLIC "-//W3C//DTD SVG 1.1//EN" "http://www.w3.org/Graphics/SVG/1.1/DTD/svg11.dtd">
<svg version="1.1" id="Layer_1" xmlns="http://www.w3.org/2000/svg" xmlns:xlink="http://www.w3.org/1999/xlink" x="0px" y="0px"
	 width="76px" height="76px" viewBox="0 0 76 76" enable-background="new 0 0 76 76" xml:space="preserve">
<g>
	<path fill="#2E2E2E" d="M74.733,73.467h-3.8V26.6c0-0.699-0.566-1.267-1.267-1.267H59.533c-0.7,0-1.267,0.567-1.267,1.267v46.867
		H53.2V49.4c0-0.699-0.566-1.267-1.267-1.267H41.8c-0.7,0-1.267,0.567-1.267,1.267v24.066h-5.066V41.8
		c0-0.698-0.566-1.267-1.267-1.267H24.067c-0.701,0-1.267,0.568-1.267,1.267v31.667h-5.066V59.533c0-0.699-0.566-1.267-1.267-1.267
		H6.333c-0.701,0-1.267,0.567-1.267,1.267v13.934h-3.8C0.566,73.467,0,74.034,0,74.733S0.566,76,1.267,76h5.067h10.133h7.6H34.2h7.6
		h10.134h7.6h10.134h5.066c0.7,0,1.267-0.567,1.267-1.267S75.434,73.467,74.733,73.467z M7.6,73.467V60.8h7.6v12.667H7.6z
		 M25.333,73.467v-30.4h7.6v30.4H25.333z M43.066,73.467v-22.8h7.601v22.8H43.066z M60.8,73.467v-45.6H68.4v45.6H60.8z"/>
	<path fill="#2E2E2E" d="M29.133,15.2c-2.794,0-5.066,2.272-5.066,5.066c0,0.809,0.208,1.563,0.546,2.241l-11.606,10.06
		c-0.818-0.565-1.807-0.901-2.873-0.901c-2.794,0-5.066,2.272-5.066,5.067c0,2.794,2.272,5.066,5.066,5.066s5.067-2.272,5.067-5.066
		c0-0.809-0.208-1.563-0.546-2.241l11.606-10.06c0.818,0.565,1.807,0.901,2.873,0.901c1.672,0,3.145-0.823,4.068-2.077l9.929,3.973
		c-0.027,0.211-0.064,0.419-0.064,0.637c0,2.794,2.272,5.066,5.067,5.066c2.794,0,5.066-2.272,5.066-5.066
		c0-1.102-0.362-2.114-0.961-2.946L64.978,9.633c0.656,0.312,1.382,0.5,2.156,0.5c2.794,0,5.066-2.272,5.066-5.066
		C72.2,2.272,69.928,0,67.134,0c-2.795,0-5.067,2.272-5.067,5.067c0,1.102,0.362,2.114,0.961,2.946L50.291,23.3
		c-0.658-0.312-1.384-0.5-2.157-0.5c-1.673,0-3.145,0.823-4.069,2.077l-9.929-3.973c0.026-0.211,0.064-0.419,0.064-0.637
		C34.2,17.472,31.928,15.2,29.133,15.2z M67.134,2.533c1.395,0,2.533,1.136,2.533,2.534c0,1.397-1.139,2.533-2.533,2.533
		c-1.398,0-2.534-1.136-2.534-2.533C64.6,3.669,65.735,2.533,67.134,2.533z M48.134,25.333c0.615,0,1.171,0.229,1.61,0.595
		l0.002,0.001c0,0,0,0,0.003,0.001c0.556,0.464,0.918,1.154,0.918,1.935c0,1.397-1.139,2.533-2.533,2.533
		c-1.398,0-2.534-1.136-2.534-2.533S46.735,25.333,48.134,25.333z M10.133,39.267c-1.397,0-2.533-1.136-2.533-2.533
		S8.736,34.2,10.133,34.2c0.763,0,1.438,0.346,1.904,0.88c0,0,0,0.001,0.001,0.001c0,0,0.001,0,0.001,0.001
		c0.385,0.445,0.627,1.018,0.627,1.651C12.667,38.131,11.529,39.267,10.133,39.267z M29.133,22.8c-1.397,0-2.533-1.136-2.533-2.533
		c0-1.397,1.136-2.533,2.533-2.533c1.396,0,2.533,1.136,2.533,2.533C31.667,21.664,30.529,22.8,29.133,22.8z"/>
</g>
</svg>
