<?xml version="1.0" encoding="utf-8"?>
<!-- Generator: Adobe Illustrator 16.0.3, SVG Export Plug-In . SVG Version: 6.00 Build 0)  -->
<!DOCTYPE svg PUBLIC "-//W3C//DTD SVG 1.1//EN" "http://www.w3.org/Graphics/SVG/1.1/DTD/svg11.dtd">
<svg version="1.1" id="Layer_1" xmlns="http://www.w3.org/2000/svg" xmlns:xlink="http://www.w3.org/1999/xlink" x="0px" y="0px"
	 width="438px" height="53px" viewBox="0 0 438 53" enable-background="new 0 0 438 53" xml:space="preserve">
<g>
	<g>
		<polygon opacity="0.4" fill="#ED2632" points="-0.29,-0.126 11.738,33.036 43.756,33.036 		"/>
		<polygon opacity="0.4" fill="#4B52A3" points="55.784,-0.126 43.756,33.036 11.738,33.036 		"/>
		<polygon opacity="0.4" fill="#36BDB4" points="55.173,41.533 51.75,52.874 37.048,52.874 27.75,20.984 		"/>
		<polygon opacity="0.4" fill="#099146" points="0.327,41.533 3.75,52.874 18.449,52.874 27.75,20.984 		"/>
	</g>
	<g>
		<path fill="#231F20" d="M139.303,10.375c-8.87,0-16.061,7.162-16.061,15.995c0,8.834,7.191,15.995,16.061,15.995
			s16.061-7.16,16.061-15.995C155.364,17.536,148.173,10.375,139.303,10.375z M139.303,35.918c-5.293,0-9.588-4.276-9.588-9.548
			s4.294-9.549,9.588-9.549c5.294,0,9.587,4.277,9.587,9.549S144.597,35.918,139.303,35.918z"/>
		<path fill="#231F20" d="M226.628,10.375c-8.871,0-16.061,7.162-16.061,15.995c0,8.834,7.19,15.995,16.061,15.995
			c8.869,0,16.061-7.16,16.061-15.995C242.688,17.536,235.497,10.375,226.628,10.375z M226.628,35.918
			c-5.294,0-9.588-4.276-9.588-9.548s4.294-9.549,9.588-9.549c5.293,0,9.587,4.277,9.587,9.549S231.921,35.918,226.628,35.918z"/>
		<polygon fill="#231F20" points="343.794,28.038 343.798,28.038 347.17,20.292 350.528,28.1 356.567,42.02 363.92,42.02 
			350.502,11.089 343.794,11.089 330.375,42.02 337.729,42.02 		"/>
		<path fill="#231F20" d="M264.954,17.26c-0.721,0.547-1.08,1.269-1.08,2.169c0,0.9,0.439,1.615,1.318,2.146
			c0.878,0.532,2.908,1.159,6.092,1.881c3.18,0.724,5.647,1.808,7.407,3.251c1.758,1.448,2.636,3.557,2.636,6.329
			c0,2.774-1.124,5.022-3.38,6.748c-2.253,1.725-5.219,2.588-8.894,2.588c-5.306,0-10.086-1.812-14.339-5.44l4.461-5.047
			c3.612,2.922,6.952,4.383,10.021,4.383c1.374,0,2.454-0.272,3.238-0.819c0.783-0.544,1.174-1.284,1.174-2.214
			s-0.416-1.665-1.249-2.211c-0.829-0.547-2.475-1.1-4.938-1.659c-3.9-0.855-6.752-1.971-8.56-3.342
			c-1.805-1.371-2.709-3.524-2.709-6.459c0-2.935,1.143-5.2,3.429-6.793c2.286-1.592,5.138-2.389,8.562-2.389
			c2.236,0,4.473,0.354,6.713,1.062c2.236,0.707,4.186,1.71,5.849,3.009l-3.79,5.044c-2.908-2.036-5.914-3.052-9.011-3.052
			C266.657,16.443,265.672,16.715,264.954,17.26z"/>
		<path fill="#231F20" d="M318.767,13.682c2.178,1.725,3.266,4.38,3.266,7.959c0,3.581-1.118,6.2-3.355,7.857
			c-2.236,1.659-5.648,2.49-10.239,2.49h-4.134v10.035h-6.931V11.089h10.974C313.116,11.089,316.589,11.954,318.767,13.682z
			 M313.679,25.081c0.83-0.869,1.244-2.138,1.244-3.814c0-1.67-0.539-2.859-1.621-3.566c-1.082-0.705-2.762-1.056-5.044-1.056
			h-3.954v9.744h4.666C311.28,26.389,312.85,25.954,313.679,25.081z"/>
		<path fill="#231F20" d="M389.43,35.913c3.406,0,6.19-1.342,8.353-4.028l4.442,4.559c-3.524,3.955-7.68,5.929-12.461,5.929
			c-4.787,0-8.725-1.502-11.82-4.515c-3.095-3.007-4.642-6.804-4.642-11.393c0-4.586,1.577-8.414,4.731-11.483
			c3.154-3.068,7.013-4.601,11.574-4.601c5.095,0,9.358,1.933,12.797,5.796l-4.311,4.868c-2.193-2.714-4.918-4.071-8.176-4.071
			c-2.606,0-4.836,0.848-6.688,2.545c-1.851,1.697-2.775,3.982-2.775,6.859c0,2.875,0.874,5.184,2.621,6.923
			C384.823,35.043,386.941,35.913,389.43,35.913z"/>
		<path fill="#231F20" d="M437.222,11.089v6.15H421.76v6.371h13.906v5.886H421.76v6.417h15.95v6.106h-22.882V11.089H437.222z"/>
		<path fill="#231F20" d="M190.373,11.089h6.931V42.02h-6.931l-14.794-19.382V42.02h-6.931V11.089h6.486l15.239,19.912V11.089z"/>
		<path fill="#231F20" d="M103.158,22.55l-8.399,16.904h-4.131L82.275,22.55v19.47h-6.931V11.089h9.374l7.998,16.991l8.042-16.991
			h9.331V42.02h-6.93V22.55z"/>
	</g>
</g>
</svg>
