<?xml version="1.0" encoding="utf-8"?>
<!-- Generator: Adobe Illustrator 16.0.3, SVG Export Plug-In . SVG Version: 6.00 Build 0)  -->
<!DOCTYPE svg PUBLIC "-//W3C//DTD SVG 1.1//EN" "http://www.w3.org/Graphics/SVG/1.1/DTD/svg11.dtd">
<svg version="1.1" id="Layer_1" xmlns="http://www.w3.org/2000/svg" xmlns:xlink="http://www.w3.org/1999/xlink" x="0px" y="0px"
	 width="134px" height="17px" viewBox="0 0 134 17" enable-background="new 0 0 134 17" xml:space="preserve">
<g>
	<g>
		<polygon opacity="0.4" fill="#FFFFFF" points="0,0 3.68,10.187 13.475,10.187 		"/>
		<polygon opacity="0.4" fill="#FFFFFF" points="17.155,0 13.475,10.187 3.68,10.187 		"/>
		<polygon opacity="0.4" fill="#FFFFFF" points="16.968,12.798 15.921,16.28 11.423,16.28 8.579,6.485 		"/>
		<polygon opacity="0.4" fill="#FFFFFF" points="0.188,12.798 1.236,16.28 5.733,16.28 8.579,6.485 		"/>
	</g>
	<g>
		<path fill="#FFFFFF" d="M42.707,3.226c-2.713,0-4.914,2.2-4.914,4.914c0,2.713,2.2,4.912,4.914,4.912
			c2.714,0,4.914-2.199,4.914-4.912C47.62,5.426,45.42,3.226,42.707,3.226z M42.707,11.071c-1.62,0-2.933-1.312-2.933-2.932
			c0-1.62,1.313-2.934,2.933-2.934S45.64,6.52,45.64,8.14C45.64,9.759,44.326,11.071,42.707,11.071z"/>
		<path fill="#FFFFFF" d="M69.422,3.226c-2.713,0-4.913,2.2-4.913,4.914c0,2.713,2.2,4.912,4.913,4.912
			c2.714,0,4.914-2.199,4.914-4.912C74.336,5.426,72.136,3.226,69.422,3.226z M69.422,11.071c-1.619,0-2.933-1.312-2.933-2.932
			c0-1.62,1.313-2.934,2.933-2.934c1.62,0,2.934,1.313,2.934,2.934C72.355,9.759,71.042,11.071,69.422,11.071z"/>
		<polygon fill="#FFFFFF" points="105.268,8.651 105.269,8.651 106.301,6.272 107.328,8.671 109.176,12.946 111.425,12.946 
			107.32,3.445 105.268,3.445 101.162,12.946 103.412,12.946 		"/>
		<path fill="#FFFFFF" d="M81.147,5.341c-0.221,0.168-0.33,0.39-0.33,0.667s0.134,0.496,0.403,0.659
			c0.269,0.164,0.89,0.356,1.863,0.578c0.973,0.223,1.729,0.556,2.267,0.999c0.538,0.444,0.807,1.092,0.807,1.943
			s-0.344,1.543-1.034,2.074c-0.689,0.529-1.597,0.795-2.721,0.795c-1.624,0-3.086-0.559-4.388-1.672l1.365-1.551
			c1.105,0.898,2.127,1.346,3.065,1.346c0.421,0,0.751-0.084,0.991-0.25c0.239-0.168,0.359-0.395,0.359-0.682
			c0-0.285-0.128-0.51-0.383-0.678c-0.254-0.168-0.757-0.338-1.511-0.511c-1.193-0.263-2.065-0.604-2.618-1.026
			c-0.553-0.421-0.829-1.082-0.829-1.984c0-0.901,0.35-1.597,1.049-2.086c0.7-0.489,1.572-0.734,2.619-0.734
			c0.685,0,1.369,0.108,2.054,0.326c0.685,0.217,1.281,0.525,1.79,0.924l-1.16,1.549c-0.89-0.625-1.809-0.938-2.756-0.938
			C81.669,5.09,81.367,5.173,81.147,5.341z"/>
		<path fill="#FFFFFF" d="M97.611,4.242c0.666,0.53,0.999,1.346,0.999,2.445c0,1.1-0.343,1.904-1.026,2.414
			c-0.685,0.51-1.729,0.764-3.133,0.764h-1.265v3.084h-2.121V3.445h3.357C95.882,3.445,96.944,3.711,97.611,4.242z M96.055,7.743
			c0.254-0.267,0.381-0.657,0.381-1.171c0-0.513-0.166-0.878-0.497-1.095c-0.33-0.217-0.845-0.325-1.543-0.325h-1.209v2.994h1.427
			C95.32,8.146,95.801,8.011,96.055,7.743z"/>
		<path fill="#FFFFFF" d="M119.229,11.071c1.042,0,1.894-0.412,2.556-1.238l1.358,1.4c-1.078,1.215-2.35,1.822-3.812,1.822
			c-1.464,0-2.669-0.463-3.616-1.387c-0.946-0.924-1.419-2.092-1.419-3.5c0-1.409,0.481-2.585,1.447-3.528
			c0.965-0.942,2.146-1.414,3.54-1.414c1.56,0,2.863,0.594,3.915,1.781l-1.318,1.495c-0.671-0.834-1.505-1.25-2.501-1.25
			c-0.798,0-1.479,0.26-2.046,0.782c-0.566,0.521-0.85,1.223-0.85,2.107c0,0.883,0.268,1.592,0.803,2.127
			C117.82,10.804,118.468,11.071,119.229,11.071z"/>
		<path fill="#FFFFFF" d="M133.851,3.445v1.889h-4.73v1.957h4.255V9.1h-4.255v1.972H134v1.875h-7V3.445H133.851z"/>
		<path fill="#FFFFFF" d="M58.331,3.445h2.12v9.501h-2.12l-4.526-5.954v5.954h-2.121V3.445h1.984l4.663,6.116V3.445z"/>
		<path fill="#FFFFFF" d="M31.648,6.966l-2.569,5.191h-1.264L25.26,6.966v5.98h-2.121V3.445h2.868l2.447,5.22l2.46-5.22h2.855v9.501
			h-2.121V6.966z"/>
	</g>
</g>
</svg>
