<?xml version="1.0" encoding="utf-8"?>
<!-- Generator: Adobe Illustrator 16.0.3, SVG Export Plug-In . SVG Version: 6.00 Build 0)  -->
<!DOCTYPE svg PUBLIC "-//W3C//DTD SVG 1.1//EN" "http://www.w3.org/Graphics/SVG/1.1/DTD/svg11.dtd">
<svg version="1.1" id="Layer_1" xmlns="http://www.w3.org/2000/svg" xmlns:xlink="http://www.w3.org/1999/xlink" x="0px" y="0px"
	 width="61px" height="78px" viewBox="0 0 61 78" enable-background="new 0 0 61 78" xml:space="preserve">
<g>
	<g>
		<g>
			<g>
				<path fill="#FFFFFF" d="M36.442,60.845c-0.854,0-1.672-0.153-2.369-0.443c-0.025-0.012-0.049-0.022-0.072-0.035
					c-0.033,0.004-0.059,0.006-0.074,0.006c-0.182,0-0.311-0.12-0.418-0.264c-1.328-0.815-2.241-2.626-1.465-4.223
					c-0.02-0.489,0.055-0.866,0.227-1.151c0.447-0.74,2.172-1.378,5.133-1.893c-0.131-0.971,0.258-1.646,1.117-1.922
					c0.215-0.068,0.428-0.104,0.633-0.104c0.623,0,1.186,0.326,1.555,0.887l0.061-0.027l-0.662-6.472
					c-0.018-0.166,0.088-0.319,0.25-0.362l5.484-1.467c0.027-0.007,0.059-0.012,0.088-0.012c0.066,0,0.135,0.021,0.191,0.06
					c0.082,0.057,0.135,0.146,0.146,0.244l1.279,12.195c0.014,0.146-0.068,0.288-0.205,0.347l-4.268,1.837
					c0.295,1.297-0.361,1.866-0.992,2.117c-0.264,0.105-0.523,0.157-0.77,0.157l0,0c-0.482,0-0.92-0.197-1.262-0.563
					C39.187,60.435,37.847,60.845,36.442,60.845z"/>
			</g>
			<g>
				<path fill="#57595F" d="M45.929,43.703l1.279,12.193l-4.539,1.954c0.143,0.456,0.434,1.541-0.713,1.997
					c-0.236,0.093-0.449,0.133-0.645,0.133c-0.572,0-0.975-0.345-1.217-0.715c-0.789,0.782-2.215,1.239-3.652,1.239
					c-0.775,0-1.553-0.133-2.238-0.417c-0.051-0.022-0.098-0.048-0.146-0.071c-0.062,0.01-0.109,0.017-0.131,0.017l0,0
					c-0.039,0-0.104-0.065-0.184-0.181c-1.564-0.915-1.988-2.691-1.355-3.895c-0.025-0.421,0.02-0.79,0.176-1.049
					c0.537-0.896,3.551-1.512,5.236-1.792c-0.158-0.646-0.188-1.55,0.824-1.874c0.189-0.061,0.365-0.088,0.529-0.088
					c0.689,0,1.168,0.478,1.41,0.982l0.568-0.25l-0.688-6.717L45.929,43.703 M45.929,43.024c-0.061,0-0.117,0.007-0.176,0.023
					l-5.484,1.466c-0.322,0.087-0.535,0.394-0.5,0.726l0.574,5.608c-0.35-0.24-0.758-0.37-1.189-0.37
					c-0.24,0-0.488,0.04-0.736,0.119c-0.91,0.292-1.395,1.004-1.375,1.964c-4.336,0.793-4.879,1.693-5.061,1.999
					c-0.197,0.326-0.289,0.738-0.279,1.257c-0.63,1.413-0.223,3.42,1.574,4.549c0.125,0.153,0.334,0.347,0.65,0.347
					c0.004,0,0.008,0,0.01,0s0.002,0.001,0.004,0.001c0.74,0.309,1.604,0.472,2.502,0.472c1.355,0,2.662-0.369,3.582-0.99
					c0.369,0.302,0.814,0.466,1.287,0.466c0.291,0,0.592-0.061,0.895-0.182c1.211-0.481,1.34-1.486,1.244-2.225l4.025-1.733
					c0.273-0.117,0.438-0.398,0.406-0.694l-1.279-12.193c-0.02-0.198-0.127-0.377-0.289-0.489
					C46.198,43.065,46.063,43.024,45.929,43.024L45.929,43.024z"/>
			</g>
		</g>
		<g>
			<g>
				<path fill="#FFFFFF" d="M24.993,59.796c-1.189,0-2.277-0.285-3.049-0.791c-0.346,0.438-0.826,0.682-1.367,0.682
					c-0.197,0-0.406-0.032-0.621-0.096c-0.688-0.205-1.438-0.769-1.131-2.283l-5.795-2.139c-0.133-0.049-0.221-0.174-0.223-0.314
					l-0.17-11.703c0-0.1,0.041-0.193,0.115-0.259c0.062-0.056,0.143-0.086,0.225-0.086c0.016,0,0.031,0.001,0.047,0.003l6.42,0.879
					c0.168,0.023,0.293,0.168,0.293,0.338l-0.018,7.134l0.727,0.155c0.26-0.663,0.83-1.304,1.762-1.304
					c0.152,0,0.311,0.019,0.471,0.056c0.818,0.183,1.268,0.756,1.287,1.628c2.133,0.123,5.451,0.478,6.193,1.495
					c0.843,1.154-0.125,4.16-0.572,5.125c-0.184,0.391-0.336,0.62-0.58,0.638c-0.008,0.001-0.045,0.001-0.045,0.001
					c-0.133,0-0.445-0.03-0.654-0.053c-0.125,0.082-0.238,0.152-0.355,0.212C27.116,59.554,26.065,59.796,24.993,59.796z"/>
			</g>
			<g>
				<path fill="#57595F" d="M12.977,43.146l6.422,0.88l-0.02,7.409l1.297,0.277c0-0.008,0.004-0.017,0.006-0.025
					c0.154-0.623,0.654-1.335,1.525-1.335c0.125,0,0.256,0.016,0.396,0.046c0.947,0.214,1.07,0.984,1.01,1.618
					c1.115,0.056,5.518,0.341,6.271,1.374c0.865,1.186-0.602,5.203-0.902,5.225c-0.006,0-0.014,0.001-0.021,0.001
					c-0.094,0-0.363-0.022-0.742-0.066c-0.133,0.095-0.273,0.185-0.426,0.265c-0.828,0.437-1.828,0.643-2.801,0.643
					c-1.225,0-2.404-0.328-3.137-0.937c-0.225,0.42-0.635,0.827-1.279,0.827c-0.16,0-0.334-0.024-0.523-0.081
					c-1.217-0.362-0.977-1.526-0.879-1.967c0.01-0.039,0.025-0.109,0.051-0.205l-6.078-2.244L12.977,43.146 M12.977,42.467
					c-0.164,0-0.324,0.061-0.449,0.171c-0.148,0.131-0.23,0.32-0.229,0.519l0.17,11.704c0.004,0.279,0.18,0.529,0.443,0.626
					l5.531,2.042c-0.213,1.637,0.775,2.197,1.416,2.388c0.244,0.073,0.486,0.109,0.717,0.109c0.549,0,1.045-0.207,1.432-0.585
					c0.803,0.446,1.852,0.694,2.984,0.694c1.127,0,2.234-0.255,3.117-0.721c0.094-0.049,0.186-0.102,0.281-0.163
					c0.211,0.022,0.447,0.043,0.57,0.043c0.027,0,0.051-0.001,0.07-0.002c0.453-0.032,0.674-0.43,0.861-0.834
					c0.373-0.802,1.555-4.078,0.541-5.469c-0.434-0.593-1.861-1.341-6.154-1.616c-0.119-0.857-0.652-1.44-1.527-1.637
					c-0.186-0.042-0.369-0.063-0.545-0.063c-0.932,0-1.602,0.566-1.959,1.253l-0.189-0.039l0.018-6.859
					c0.002-0.341-0.25-0.629-0.586-0.675l-6.422-0.879C13.04,42.469,13.008,42.467,12.977,42.467L12.977,42.467z"/>
			</g>
		</g>
		<g opacity="0.3">
			<ellipse fill="#010101" cx="30.785" cy="74.609" rx="18.456" ry="3.241"/>
		</g>
		<g>
			<g>
				<polygon fill="#9A9C9F" points="22.063,73.405 22.063,62.232 28.319,63.645 28.319,73.405 				"/>
			</g>
			<g>
				<path fill="#57595F" d="M22.233,62.444l5.916,1.336v9.456h-5.916V62.444 M21.893,62.02v0.425v10.792v0.339h0.34h5.916h0.34
					v-0.339V63.78V63.51l-0.266-0.061l-5.914-1.335L21.893,62.02L21.893,62.02z"/>
			</g>
		</g>
		<g>
			<path fill="#C8C4C6" d="M22.233,72.267l2.027-0.374v-6.686c-1.004-0.235-1.65-0.54-2.027-0.765V72.267z"/>
		</g>
		<g>
			<g>
				<path fill="#C8C4C6" d="M25.19,69.677c-0.73,0-1.422-0.308-1.854-0.825l-1.25-0.562v-1.213l1.25-0.562
					c0.43-0.518,1.123-0.825,1.854-0.825c0.732,0,1.426,0.308,1.855,0.824l1.252,0.563v1.213l-1.252,0.562
					C26.614,69.369,25.922,69.677,25.19,69.677z"/>
			</g>
			<g>
				<path fill="#57595F" d="M25.19,65.773c0.744,0,1.404,0.32,1.803,0.809l1.219,0.548v1.104l-1.219,0.549
					c-0.398,0.488-1.059,0.81-1.803,0.81s-1.402-0.321-1.801-0.81l-1.219-0.549V67.13l1.219-0.547
					C23.788,66.094,24.446,65.773,25.19,65.773 M25.19,65.604c-0.75,0-1.459,0.313-1.906,0.841L22.1,66.976L22,67.021v0.109v1.104
					v0.11l0.1,0.045l1.184,0.531c0.447,0.527,1.158,0.842,1.906,0.842c0.75,0,1.459-0.314,1.908-0.841l1.184-0.532l0.1-0.045v-0.11
					V67.13v-0.109l-0.1-0.045l-1.184-0.531C26.651,65.917,25.942,65.604,25.19,65.604L25.19,65.604z"/>
			</g>
		</g>
		<g>
			<g>
				<polygon fill="#9A9C9F" points="32.755,73.405 32.755,63.645 39.013,62.232 39.013,73.405 				"/>
			</g>
			<g>
				<path fill="#57595F" d="M38.843,62.444v10.792h-5.918V63.78L38.843,62.444 M39.183,62.02l-0.416,0.095l-5.916,1.335l-0.264,0.06
					v0.271v9.456v0.339h0.338h5.918h0.34v-0.339V62.444V62.02L39.183,62.02z"/>
			</g>
		</g>
		<g>
			<path fill="#C8C4C6" d="M32.925,71.893l2.057-0.293v-5.969c-0.832,0.29-1.605,0.395-2.057,0.431V71.893z"/>
		</g>
		<g>
			<g>
				<path fill="#C8C4C6" d="M35.884,69.677c-0.73,0-1.424-0.308-1.854-0.825l-1.252-0.562v-1.213l1.252-0.563
					c0.43-0.517,1.123-0.824,1.854-0.824c0.732,0,1.424,0.308,1.855,0.825l1.25,0.562v1.213l-1.25,0.562
					C37.308,69.369,36.616,69.677,35.884,69.677z"/>
			</g>
			<g>
				<path fill="#57595F" d="M35.884,65.773c0.746,0,1.402,0.32,1.803,0.81l1.219,0.547v1.104l-1.219,0.549
					c-0.4,0.488-1.057,0.81-1.803,0.81c-0.744,0-1.402-0.321-1.801-0.81l-1.221-0.549V67.13l1.221-0.548
					C34.481,66.094,35.14,65.773,35.884,65.773 M35.884,65.604c-0.75,0-1.459,0.313-1.906,0.841l-1.184,0.531l-0.1,0.045v0.109
					v1.104v0.11l0.1,0.045l1.184,0.532c0.447,0.526,1.156,0.841,1.906,0.841s1.459-0.314,1.908-0.841l1.182-0.532l0.102-0.045v-0.11
					V67.13v-0.109l-0.102-0.045l-1.182-0.531C37.345,65.917,36.634,65.604,35.884,65.604L35.884,65.604z"/>
			</g>
		</g>
		<g>
			<path fill="#9A9C9F" d="M37.2,66.156c0.945,1.528-0.268,3.182-1.412,3.081c-1.184-0.104-1.584-0.883-1.584-0.883l-1.342-0.375
				v0.254l1.221,0.549c0.398,0.488,1.055,0.81,1.801,0.81c0.744,0,1.402-0.321,1.803-0.81l1.219-0.549V67.13l-1.219-0.548
				C37.552,66.419,37.388,66.275,37.2,66.156z"/>
		</g>
		<g>
			<g>
				<path fill="#FFFFFF" d="M31.23,73.405v-0.169c-0.002-1.719,2.087-3.108,4.653-3.108s4.652,1.39,4.652,3.098v0.17l-0.17,0.01
					H31.23z"/>
			</g>
			<g>
				<path fill="#57595F" d="M35.884,70.298c2.477,0,4.482,1.312,4.482,2.928c0,0.003,0,0.007,0,0.011h-8.965
					c0-0.004-0.002-0.008-0.002-0.011C31.399,71.609,33.407,70.298,35.884,70.298 M35.884,69.959c-2.66,0-4.825,1.465-4.825,3.267
					v0.018l0.002,0.007v0.325h0.341h8.965h0.34v-0.324v-0.003v-0.022C40.706,71.424,38.544,69.959,35.884,69.959L35.884,69.959z"/>
			</g>
		</g>
		<g>
			<path fill="#C8C4C6" d="M35.884,70.298c-0.123,0-0.244,0.007-0.363,0.013c-0.008,0.006-0.016,0.008-0.021,0.006
				c0.193,0.093,1.135,0.405,1.096,1.576c-0.023,0.644-0.811,1.027-1.918,1.344h5.689c0-0.004,0-0.008,0-0.011
				C40.366,71.609,38.36,70.298,35.884,70.298z"/>
		</g>
		<g>
			<g>
				<rect x="31.23" y="73.066" fill="#57595F" width="9.306" height="1.729"/>
			</g>
			<g>
				<path fill="#57595F" d="M40.366,73.236v1.391h-8.965v-1.391H40.366 M40.706,72.896h-0.34h-8.965h-0.341v0.34v1.391v0.338h0.341
					h8.965h0.34v-0.338v-1.391V72.896L40.706,72.896z"/>
			</g>
		</g>
		<g>
			<g>
				<path fill="#FFFFFF" d="M20.54,73.405v-0.169c-0.002-1.719,2.086-3.108,4.652-3.108c2.564,0,4.652,1.39,4.652,3.098v0.17
					l-0.17,0.01H20.54z"/>
			</g>
			<g>
				<path fill="#57595F" d="M25.192,70.298c2.475,0,4.482,1.312,4.482,2.928c0,0.003,0,0.007,0,0.011h-8.965
					c0-0.004-0.002-0.008-0.002-0.011C20.708,71.609,22.715,70.298,25.192,70.298 M25.192,69.959c-2.66,0-4.824,1.465-4.824,3.267
					v0.018l0.002,0.007v0.325h0.34h8.965h0.338v-0.324l0.002-0.003v-0.022C30.014,71.424,27.85,69.959,25.192,69.959L25.192,69.959z
					"/>
			</g>
		</g>
		<g>
			<path fill="#C8C4C6" d="M25.192,70.298c-0.123,0-0.244,0.007-0.365,0.013c-0.008,0.006-0.014,0.008-0.02,0.006
				c0.193,0.093,1.135,0.405,1.094,1.576c-0.02,0.644-0.809,1.027-1.914,1.344h5.688c0-0.004,0-0.008,0-0.011
				C29.674,71.609,27.667,70.298,25.192,70.298z"/>
		</g>
		<g>
			<g>
				<rect x="20.538" y="73.066" fill="#57595F" width="9.307" height="1.729"/>
			</g>
			<g>
				<path fill="#57595F" d="M29.674,73.236v1.391h-8.967v-1.391H29.674 M30.014,72.896h-0.34h-8.967h-0.34v0.34v1.391v0.338h0.34
					h8.967h0.34v-0.338v-1.391V72.896L30.014,72.896z"/>
			</g>
		</g>
		<g>
			<g>
				<path fill="#FFFFFF" d="M29.797,65.1c-5.592,0-11.08-3.304-12.49-7.521c-1.322-3.959-1.693-11.377-1.709-11.69l-0.002-0.034
					l0.006-0.034c0.434-2.832,6.244-4.702,11.043-5.772c5.907-1.317,12.329-1.917,15.795-1.917c2.922,0,3.227,0.392,3.283,0.76
					c0.283,1.854,0.084,12.679-2.061,18.871C41.423,64.228,35.397,65.1,29.797,65.1z"/>
			</g>
			<g>
				<path fill="#57595F" d="M42.44,38.47c1.777,0,2.898,0.154,2.947,0.472c0.248,1.619,0.104,12.499-2.047,18.709
					s-7.916,7.109-13.543,7.109c-5.625,0-10.844-3.33-12.168-7.289c-1.322-3.961-1.693-11.6-1.693-11.6
					C16.668,41.093,35.124,38.47,42.44,38.47 M42.44,37.791c-3.484,0-9.938,0.602-15.87,1.924
					c-7.129,1.591-10.934,3.627-11.305,6.053l-0.01,0.068l0.002,0.067c0.016,0.316,0.391,7.779,1.729,11.782
					c1.453,4.348,7.08,7.754,12.811,7.754c5.719,0,11.875-0.899,14.186-7.567c2.162-6.242,2.361-17.163,2.074-19.034
					C45.938,38.055,45.026,37.791,42.44,37.791L42.44,37.791z"/>
			</g>
		</g>
		<g>
			<path fill="#C8C4C6" d="M43.638,46.248c-0.51,7.658-1.754,16.895-12.973,16.95c-11.215,0.057-13.777-8.773-13.777-8.773h-0.002
				c0.207,1.113,0.453,2.169,0.744,3.046c1.324,3.959,6.543,7.289,12.168,7.289c5.627,0,11.393-0.899,13.543-7.109
				c1.387-4,1.938-9.936,2.09-14.089C44.515,43.263,43.796,43.865,43.638,46.248z"/>
		</g>
		<g>
			<path fill="#C8C4C6" d="M23.024,56.112c0,0,0.84,1.203,1.773,1.882s9.167,1.104,13.536,0c0,0,2.461-2.647,3.141-8.685
				l-14.258,2.956L23.024,56.112z"/>
		</g>
		<g>
			<path fill="#C8C4C6" d="M16.159,48.896c0.883,0.632,4.58,2.775,14.145,2.719c8.309-0.048,12.538-1.532,14.758-2.763
				c0.16-1.534,0.266-3.032,0.33-4.385c-0.84-0.869-1.713-1.569-1.852-1.631c-0.316-0.145-7.26-0.856-7.951-0.527
				c-0.689,0.33-13.069,1.688-13.442,1.702c-0.373,0.016-2.615,0.549-3.148,0.735c-0.533,0.188-2.242,0.05-2.4,0.332
				c-0.066,0.117-0.387,0.416-0.658,0.867C15.956,46.235,16.02,47.377,16.159,48.896z"/>
		</g>
		<g>
			<path fill="#57595F" d="M20.059,47.876c0,0-0.002,2.007,1.053,4.844c0.863,2.319,2.287,3.839,2.287,3.839
				s8.739,0.976,14.229,0.063c0,0,2.139-4.42,2.373-9.223C40.14,44.556,20.059,47.876,20.059,47.876z"/>
			<path fill="#57595F" d="M31.778,57.181c0,0,0,0-0.002,0c-4.28,0-8.356-0.448-8.397-0.453l-0.062-0.007l-0.043-0.046
				c-0.059-0.063-1.455-1.571-2.32-3.896c-1.053-2.833-1.064-4.819-1.064-4.903v-0.145l0.143-0.023
				c0.098-0.015,9.926-1.629,15.727-1.629c2.328,0,3.701,0.252,4.195,0.771c0.154,0.161,0.227,0.349,0.217,0.557
				c-0.234,4.782-2.369,9.244-2.391,9.288l-0.039,0.08l-0.086,0.014C36.089,57.049,34.112,57.181,31.778,57.181z M23.481,56.396
				c0.533,0.058,4.326,0.445,8.295,0.445c0.002,0,0.002,0,0.004,0c2.27,0,4.199-0.126,5.732-0.373
				c0.283-0.615,2.107-4.713,2.318-9.077c0.006-0.113-0.033-0.214-0.123-0.307c-0.289-0.305-1.209-0.667-3.949-0.667
				c-5.387,0-14.278,1.4-15.526,1.603c0.023,0.505,0.166,2.294,1.039,4.64C22.032,54.702,23.243,56.129,23.481,56.396z"/>
		</g>
		<g>
			<g>
				<polygon fill="#C8C4C6" points="22.588,52.457 21.936,50.783 27.278,51.257 27.278,53.046 				"/>
			</g>
			<g>
				<path fill="#57595F" d="M22.194,50.977l4.914,0.436v1.441l-4.398-0.552L22.194,50.977 M21.678,50.59l0.199,0.509l0.516,1.325
					l0.074,0.189l0.201,0.024l4.396,0.553l0.383,0.048v-0.385v-1.441v-0.31l-0.311-0.028l-4.914-0.437L21.678,50.59L21.678,50.59z"
					/>
			</g>
		</g>
		<g>
			<g>
				<polygon fill="#C8C4C6" points="23.139,54.608 22.567,52.935 27.278,53.412 27.278,55.203 				"/>
			</g>
			<g>
				<path fill="#57595F" d="M22.813,53.13l4.295,0.436v1.441l-3.842-0.552L22.813,53.13 M22.321,52.739l0.172,0.501l0.451,1.325
					l0.068,0.196l0.205,0.029l3.842,0.553l0.389,0.055v-0.392v-1.441v-0.307l-0.307-0.031l-4.293-0.436L22.321,52.739L22.321,52.739
					z"/>
			</g>
		</g>
		<g>
			<g>
				<polygon fill="#C8C4C6" points="33.142,51.395 38.483,50.921 37.831,52.595 33.142,53.184 				"/>
			</g>
			<g>
				<path fill="#57595F" d="M38.228,51.114l-0.518,1.325l-4.398,0.553V51.55L38.228,51.114 M38.743,50.728l-0.547,0.049
					l-4.914,0.437l-0.311,0.027v0.31v1.442v0.384l0.383-0.048l4.396-0.552l0.201-0.026l0.072-0.187l0.52-1.325L38.743,50.728
					L38.743,50.728z"/>
			</g>
		</g>
		<g>
			<g>
				<polygon fill="#C8C4C6" points="33.142,53.55 37.853,53.071 37.28,54.745 33.142,55.342 				"/>
			</g>
			<g>
				<path fill="#57595F" d="M37.606,53.267l-0.453,1.325l-3.842,0.554v-1.442L37.606,53.267 M38.099,52.876l-0.527,0.054
					l-4.295,0.437l-0.305,0.03v0.307v1.442v0.392l0.389-0.056l3.842-0.553l0.207-0.03l0.066-0.196l0.451-1.325L38.099,52.876
					L38.099,52.876z"/>
			</g>
		</g>
		<g>
			<g>
				<path fill="#9A9C9F" d="M30.116,55.547c-1.07,0-1.943-0.901-1.943-2.01s0.873-2.01,1.943-2.01c1.072,0,1.944,0.901,1.944,2.01
					S31.188,55.547,30.116,55.547z"/>
			</g>
			<g>
				<path fill="#57595F" d="M30.116,51.697c0.98,0,1.776,0.823,1.776,1.84c0,1.016-0.796,1.84-1.776,1.84
					c-0.98,0-1.773-0.824-1.773-1.84C28.342,52.521,29.135,51.697,30.116,51.697 M30.116,51.357c-1.166,0-2.113,0.978-2.113,2.18
					s0.947,2.18,2.113,2.18c1.166,0,2.114-0.978,2.114-2.18S31.281,51.357,30.116,51.357L30.116,51.357z"/>
			</g>
		</g>
		<g>
			<path fill="#C8C4C6" d="M29.295,54.425c0,0.299,0.07,0.582,0.195,0.833c0.193,0.075,0.404,0.119,0.625,0.119
				c0.98,0,1.776-0.824,1.776-1.84c0-0.3-0.072-0.583-0.195-0.834c-0.193-0.075-0.405-0.119-0.626-0.119
				C30.09,52.584,29.295,53.408,29.295,54.425z"/>
		</g>
		<g>
			<path fill="#9A9C9F" d="M26.508,66.156c0.943,1.528-0.268,3.182-1.412,3.081c-1.186-0.104-1.586-0.883-1.586-0.883l-1.34-0.375
				v0.254l1.219,0.549c0.398,0.488,1.057,0.81,1.801,0.81s1.404-0.321,1.803-0.81l1.219-0.549V67.13l-1.219-0.548
				C26.86,66.419,26.694,66.275,26.508,66.156z"/>
		</g>
		<g>
			<polygon fill="#9A9C9F" points="22.709,52.302 23.297,52.375 23.02,51.515 27.108,51.939 27.108,51.412 22.194,50.977 			"/>
		</g>
		<g>
			<polygon fill="#9A9C9F" points="23.266,54.455 23.87,54.542 23.604,53.712 27.108,54.051 27.108,53.565 22.813,53.13 			"/>
		</g>
		<g>
			<polygon fill="#9A9C9F" points="33.312,52.992 34.188,52.881 34.188,52.053 38.042,51.589 38.228,51.114 33.312,51.55 			"/>
		</g>
		<g>
			<polygon fill="#9A9C9F" points="33.312,55.146 34.132,55.027 34.188,54.068 37.478,53.646 37.606,53.267 33.312,53.703 			"/>
		</g>
		<g>
			<rect x="30.338" y="57.527" fill="#C8C4C6" width="0.51" height="6.856"/>
		</g>
		<g>
			<g>
				<path fill="#FFFFFF" d="M22.772,58.573c-0.021,0-0.041-0.004-0.059-0.011l-9.625-3.554c-0.066-0.024-0.109-0.087-0.111-0.157
					l-0.17-11.703c0-0.05,0.021-0.097,0.059-0.13c0.031-0.027,0.07-0.043,0.111-0.043c0.008,0,0.016,0.002,0.023,0.003l6.422,0.879
					c0.082,0.012,0.145,0.083,0.145,0.168l-0.018,7.272l4.361,0.934c0.09,0.019,0.148,0.105,0.131,0.196l-1.104,6.006
					c-0.01,0.049-0.039,0.092-0.082,0.116C22.831,58.565,22.799,58.573,22.772,58.573z"/>
			</g>
			<g>
				<path fill="#57595F" d="M12.977,43.146l6.422,0.88l-0.02,7.409l4.496,0.962l-1.104,6.007l-9.625-3.554L12.977,43.146
					 M12.977,42.807c-0.082,0-0.162,0.03-0.225,0.086c-0.074,0.065-0.115,0.159-0.115,0.259l0.17,11.703
					c0.002,0.141,0.09,0.266,0.223,0.314l9.623,3.553c0.039,0.014,0.078,0.021,0.119,0.021c0.059,0,0.115-0.015,0.168-0.044
					c0.086-0.05,0.146-0.136,0.164-0.233l1.105-6.007c0.033-0.181-0.084-0.354-0.264-0.393l-4.227-0.905l0.018-7.134
					c0-0.17-0.125-0.314-0.293-0.338l-6.42-0.878C13.008,42.808,12.993,42.807,12.977,42.807L12.977,42.807z"/>
			</g>
		</g>
		<g>
			<path fill="#C8C4C6" d="M14.461,48.739c0,0-0.725-0.635-1.42-1.2l0.105,7.311l6.502,2.401c0.23-0.902,0.428-1.723,0.428-1.723
				l-5.211-1.805L14.461,48.739z"/>
		</g>
		<g>
			<path fill="#C8C4C6" d="M12.981,43.354l0.078,5.409c1.426,0.589,3.867,1.452,6.324,1.663l0.016-6.4L13.2,43.177
				C13.129,43.232,13.057,43.291,12.981,43.354z"/>
		</g>
		<g>
			<path fill="#FFFFFF" d="M23.356,52.004c0,0,5.664,0.2,6.529,1.386s-0.602,5.203-0.902,5.225s-5.27-0.538-6.561-1.425
				C21.133,56.302,23.356,52.004,23.356,52.004z"/>
			<path fill="#57595F" d="M28.961,58.785c-0.412,0-5.301-0.539-6.635-1.456c-1.373-0.945,0.645-4.95,0.879-5.402
				c0.029-0.06,0.088-0.095,0.156-0.093c0.588,0.021,5.773,0.238,6.66,1.455c0.789,1.081-0.17,4.052-0.592,4.954
				c-0.203,0.439-0.316,0.532-0.436,0.541C28.991,58.784,28.965,58.785,28.961,58.785z M28.961,58.446v0.169l0.01-0.17
				C28.967,58.446,28.963,58.446,28.961,58.446z M23.458,52.178c-0.619,1.228-1.869,4.231-0.939,4.871
				c1.191,0.819,5.754,1.38,6.416,1.396c0.373-0.4,1.555-3.94,0.814-4.956C29.094,52.593,25.086,52.244,23.458,52.178z"/>
		</g>
		<g>
			<path fill="#FFFFFF" d="M23.946,53.437c1.523,0.411,3.746-0.76,5.121,0.871c1.018,1.21,0.711,3.461-1.273,4.506
				c-2.182,1.148-5.562,0.708-6.467-0.904c-0.873-1.557-0.199-1.895-0.199-1.895l0.533-4.416"/>
			<path fill="#57595F" d="M24.983,59.634c-1.652,0-3.213-0.59-3.803-1.642c-0.41-0.729-0.553-1.312-0.426-1.729
				c0.055-0.177,0.146-0.283,0.213-0.342l0.525-4.342c0.01-0.094,0.104-0.16,0.189-0.147c0.092,0.011,0.158,0.095,0.146,0.188
				l-0.533,4.416c-0.006,0.056-0.041,0.105-0.092,0.131c0,0.001-0.488,0.308,0.271,1.66c0.852,1.517,4.117,1.954,6.24,0.838
				c0.9-0.475,1.52-1.271,1.697-2.183c0.148-0.762-0.029-1.533-0.477-2.064c-0.824-0.98-2.004-0.876-3.143-0.777
				c-0.676,0.06-1.316,0.116-1.891-0.039c-0.09-0.025-0.145-0.118-0.121-0.208c0.025-0.091,0.121-0.145,0.209-0.119
				c0.516,0.138,1.127,0.084,1.773,0.028c1.168-0.103,2.492-0.218,3.432,0.896c0.512,0.608,0.719,1.487,0.551,2.348
				c-0.199,1.015-0.881,1.895-1.873,2.417C27.006,59.421,25.977,59.634,24.983,59.634z"/>
		</g>
		<g>
			<g>
				<path fill="#FFFFFF" d="M20.577,59.517c-0.182,0-0.373-0.029-0.572-0.088c-0.92-0.274-1.254-1.003-0.996-2.167
					c0.053-0.236,0.408-1.542,0.785-2.923c0.314-1.159,0.641-2.357,0.723-2.691c0.168-0.676,0.711-1.466,1.691-1.466
					c0.139,0,0.285,0.018,0.434,0.051c0.932,0.209,1.318,0.97,1.092,2.142c-0.086,0.449-0.68,2.6-1.111,4.17
					c-0.213,0.77-0.385,1.393-0.436,1.592C22.012,58.823,21.448,59.517,20.577,59.517L20.577,59.517z"/>
			</g>
			<g>
				<path fill="#57595F" d="M22.208,50.352c0.125,0,0.256,0.016,0.396,0.046c1.119,0.252,1.09,1.284,0.961,1.945
					c-0.125,0.66-1.391,5.146-1.543,5.753c-0.131,0.511-0.576,1.251-1.445,1.251c-0.16,0-0.334-0.024-0.523-0.081
					c-1.217-0.362-0.977-1.526-0.879-1.967s1.332-4.898,1.508-5.612C20.836,51.063,21.336,50.352,22.208,50.352 M22.208,50.012
					c-1.078,0-1.674,0.859-1.855,1.595c-0.082,0.332-0.408,1.529-0.723,2.688c-0.377,1.384-0.734,2.69-0.787,2.931
					c-0.193,0.871-0.156,1.987,1.113,2.366c0.215,0.063,0.424,0.096,0.621,0.096c0.961,0,1.584-0.758,1.773-1.509
					c0.051-0.197,0.229-0.842,0.434-1.589c0.434-1.573,1.027-3.727,1.115-4.182c0.334-1.723-0.621-2.206-1.221-2.34
					C22.518,50.03,22.36,50.012,22.208,50.012L22.208,50.012z"/>
			</g>
		</g>
		<g>
			<g>
				<path fill="#FFFFFF" d="M38.882,59.65c-0.023,0-0.051-0.005-0.074-0.017c-0.043-0.021-0.076-0.06-0.09-0.107l-1.635-5.884
					c-0.021-0.081,0.018-0.167,0.096-0.201l3.771-1.659l-0.676-6.595c-0.008-0.084,0.045-0.16,0.125-0.182l5.484-1.468
					c0.016-0.003,0.029-0.005,0.045-0.005c0.033,0,0.066,0.011,0.096,0.03c0.041,0.028,0.068,0.072,0.072,0.122l1.279,12.194
					c0.008,0.073-0.033,0.144-0.102,0.174l-8.324,3.584C38.929,59.646,38.905,59.65,38.882,59.65z"/>
			</g>
			<g>
				<path fill="#57595F" d="M45.929,43.703l1.279,12.193l-8.326,3.584l-1.635-5.884l3.885-1.709l-0.688-6.717L45.929,43.703
					 M45.929,43.363c-0.029,0-0.061,0.005-0.088,0.012l-5.484,1.467c-0.162,0.043-0.268,0.196-0.25,0.362l0.662,6.473l-3.658,1.609
					c-0.154,0.067-0.236,0.239-0.191,0.401l1.637,5.884c0.025,0.095,0.092,0.173,0.18,0.216c0.047,0.021,0.096,0.033,0.146,0.033
					c0.047,0,0.092-0.009,0.135-0.027l8.324-3.584c0.137-0.059,0.219-0.2,0.205-0.347l-1.279-12.195
					c-0.012-0.098-0.064-0.188-0.146-0.244C46.063,43.384,45.995,43.363,45.929,43.363L45.929,43.363z"/>
			</g>
		</g>
		<g>
			<path fill="#C8C4C6" d="M46.382,48.04c-0.762-0.194-1.461-0.296-1.412,0c0.105,0.636,0.402,6.342,0.402,6.342l-3.648,1.485
				c0,0-0.658,2.143-0.572,2.608c0,0.009,0.006,0.018,0.008,0.025l6.049-2.604L46.382,48.04z"/>
		</g>
		<g>
			<path fill="#C8C4C6" d="M45.942,43.84c-0.068-0.029-0.137-0.059-0.203-0.087l-5.295,1.418l0.557,5.435
				c1.113-0.147,3.326-0.553,5.484-1.594L45.942,43.84z"/>
		</g>
		<g>
			<g>
				<path fill="#FFFFFF" d="M7.37,36.672c-1.256,0-2.533-0.185-3.592-0.521c-0.779-0.247-1.459-1.229-2.018-2.919
					C0.655,29.89,0.186,24.011,1.221,22.58c1.311-1.814,6.746-2.591,6.977-2.624l0.34-0.047l0.045,0.337
					c0.934,6.897,1.967,15.231,1.588,15.775C9.75,36.625,7.92,36.672,7.37,36.672L7.37,36.672z"/>
			</g>
			<g>
				<path fill="#57595F" d="M8.245,20.292c0,0,2.029,14.986,1.648,15.535c-0.209,0.299-1.232,0.506-2.523,0.506
					c-1.084,0-2.355-0.146-3.488-0.506c-2.48-0.785-3.627-11.332-2.385-13.049C2.737,21.061,8.245,20.292,8.245,20.292
					 M8.827,19.525l-0.674,0.094c-0.596,0.084-5.836,0.865-7.207,2.762c-0.662,0.916-0.689,3.097-0.594,4.766
					c0.123,2.195,0.529,4.51,1.086,6.191c0.602,1.824,1.336,2.851,2.238,3.136c1.092,0.347,2.402,0.537,3.693,0.537
					c1.152,0,2.621-0.138,3.08-0.796c0.207-0.298,0.387-0.556-0.562-8.443c-0.455-3.777-0.965-7.534-0.969-7.572L8.827,19.525
					L8.827,19.525z"/>
			</g>
		</g>
		<g>
			<g>
				<path fill="#FFFFFF" d="M53.942,36.672c-0.551,0-2.383-0.047-2.803-0.65c-0.377-0.544,0.656-8.878,1.59-15.775l0.045-0.337
					l0.338,0.047c0.232,0.033,5.67,0.81,6.979,2.624c1.035,1.433,0.564,7.312-0.541,10.655c-0.557,1.688-1.236,2.67-2.018,2.917
					C56.474,36.487,55.198,36.672,53.942,36.672z"/>
			</g>
			<g>
				<path fill="#57595F" d="M53.065,20.292c0,0,5.51,0.769,6.75,2.486c1.242,1.718,0.096,12.264-2.385,13.049
					c-1.133,0.359-2.404,0.506-3.488,0.506c-1.291,0-2.316-0.207-2.523-0.506C51.036,35.278,53.065,20.292,53.065,20.292
					 M52.485,19.525l-0.092,0.676c-0.006,0.038-0.514,3.794-0.969,7.572c-0.949,7.887-0.77,8.145-0.562,8.442
					c0.457,0.659,1.928,0.797,3.08,0.797c1.289,0,2.602-0.19,3.693-0.537c0.902-0.285,1.635-1.311,2.238-3.133
					c0.555-1.682,0.961-3.997,1.086-6.193c0.094-1.669,0.068-3.85-0.594-4.767c-1.369-1.897-6.613-2.678-7.207-2.762L52.485,19.525
					L52.485,19.525z"/>
			</g>
		</g>
		<g>
			<g>
				<path fill="#FFFFFF" d="M29.237,49.284c-8.154,0-14.246-2.604-18.111-7.74c-2.682-3.564-4.277-8.268-4.879-14.379
					c-0.492-4.988,0.766-12.451,5.771-18.44c4.043-4.842,9.859-7.698,16.814-8.261c1.018-0.082,2.025-0.124,2.997-0.124
					c16.186,0,22.674,11.662,23.311,21.65c0.338,5.293-1.182,13.606-6.58,19.61c-4.279,4.76-10.197,7.333-17.586,7.647
					C30.385,49.271,29.803,49.284,29.237,49.284z"/>
			</g>
			<g>
				<path fill="#57595F" d="M31.829,0.679c17.061,0,22.43,12.837,22.973,21.333c0.572,8.968-4.104,26.057-23.844,26.897
					c-0.588,0.025-1.162,0.036-1.721,0.036c-18.238,0-21.785-13.011-22.652-21.813C5.665,17.805,11.159,2.233,28.86,0.802
					C29.887,0.719,30.875,0.679,31.829,0.679 M31.829,0c-0.979,0-1.997,0.042-3.024,0.125c-7.049,0.57-12.943,3.468-17.049,8.381
					c-5.072,6.071-6.346,13.636-5.85,18.692c0.609,6.175,2.229,10.936,4.947,14.549c3.932,5.228,10.117,7.877,18.383,7.877
					c0.57,0,1.16-0.013,1.75-0.038c7.485-0.318,13.481-2.929,17.825-7.76c5.469-6.082,7.01-14.499,6.668-19.858
					c-0.338-5.285-2.322-10.476-5.447-14.243C45.78,2.599,39.655,0,31.829,0L31.829,0z"/>
			</g>
		</g>
		<g>
			<g>
				<path fill="#FFFFFF" d="M7.37,36.502c-1.24,0-2.496-0.182-3.539-0.512c-0.727-0.23-1.369-1.176-1.91-2.812
					c-1.17-3.544-1.475-9.235-0.562-10.5c1.268-1.756,6.637-2.522,6.863-2.554l0.17-0.023l0.023,0.168
					c0.477,3.531,2.006,15.095,1.617,15.655C9.735,36.351,8.463,36.502,7.37,36.502L7.37,36.502z"/>
			</g>
			<g>
				<path fill="#57595F" d="M8.245,20.292c0,0,2.029,14.986,1.648,15.535c-0.209,0.299-1.232,0.506-2.523,0.506
					c-1.084,0-2.355-0.146-3.488-0.506c-2.48-0.785-3.627-11.332-2.385-13.049C2.737,21.061,8.245,20.292,8.245,20.292
					 M8.538,19.909l-0.34,0.047c-0.23,0.033-5.666,0.81-6.977,2.624c-0.875,1.21-0.768,6.699,0.539,10.653
					c0.559,1.689,1.238,2.672,2.018,2.919c1.059,0.336,2.336,0.521,3.592,0.521c0.551,0,2.381-0.047,2.801-0.65
					c0.125-0.179,0.312-0.449-0.621-8.208c-0.455-3.773-0.963-7.529-0.967-7.567L8.538,19.909L8.538,19.909z"/>
			</g>
		</g>
		<g>
			<path fill="#C8C4C6" d="M2.284,33.69c0.438,1.13,0.977,1.94,1.598,2.137c2.48,0.787,5.629,0.55,6.012,0
				c0.076-0.11,0.055-0.808-0.027-1.85c-0.045,0.016-0.084,0.029-0.129,0.045C6.581,35.185,3.821,34.387,2.284,33.69z"/>
		</g>
		<g>
			<ellipse fill="#57595F" cx="4.2" cy="24.847" rx="0.986" ry="1.081"/>
		</g>
		<g>
			<ellipse fill="#57595F" cx="4.48" cy="29.093" rx="0.985" ry="1.081"/>
		</g>
		<g>
			<ellipse fill="#57595F" cx="5.467" cy="33.092" rx="0.986" ry="1.082"/>
		</g>
		<g>
			<g>
				<path fill="#C8C4C6" d="M53.942,36.502c-1.094,0-2.367-0.151-2.662-0.577c-0.389-0.561,1.139-12.125,1.617-15.655l0.023-0.168
					l0.168,0.023c0.229,0.032,5.596,0.798,6.865,2.554c0.914,1.266,0.607,6.958-0.564,10.503c-0.539,1.634-1.182,2.578-1.908,2.809
					C56.438,36.32,55.181,36.502,53.942,36.502z"/>
			</g>
			<g>
				<path fill="#57595F" d="M53.065,20.292c0,0,5.51,0.769,6.75,2.486c1.242,1.718,0.096,12.264-2.385,13.049
					c-1.133,0.359-2.404,0.506-3.488,0.506c-1.291,0-2.316-0.207-2.523-0.506C51.036,35.278,53.065,20.292,53.065,20.292
					 M52.774,19.909l-0.045,0.337c-0.006,0.038-0.512,3.793-0.967,7.567c-0.934,7.759-0.746,8.03-0.623,8.208
					c0.42,0.604,2.252,0.65,2.803,0.65c1.256,0,2.531-0.185,3.59-0.521c0.781-0.247,1.461-1.229,2.018-2.917
					c1.309-3.954,1.416-9.444,0.541-10.655c-1.309-1.814-6.746-2.591-6.979-2.624L52.774,19.909L52.774,19.909z"/>
			</g>
		</g>
		<g>
			<path fill="#9A9C9F" d="M53.368,35.225c2.648-5.287,2.736-11.482,2.479-14.367c-1.754-0.534-2.717-0.556-2.775-0.564
				c-0.002,0.001-0.004,0.001-0.006,0.002c-0.018,0.126-2.027,14.985-1.646,15.532c0.381,0.55,3.529,0.787,6.012,0
				c0.379-0.119,0.727-0.469,1.041-0.98C55.206,35.563,53.368,35.225,53.368,35.225z"/>
		</g>
		<g>
			<ellipse fill="#57595F" cx="57.112" cy="24.847" rx="0.986" ry="1.081"/>
			<path fill="#57595F" d="M57.112,26.097c-0.637,0-1.156-0.562-1.156-1.25c0-0.69,0.52-1.252,1.156-1.252s1.156,0.562,1.156,1.252
				C58.269,25.536,57.749,26.097,57.112,26.097z M57.112,23.935c-0.451,0-0.816,0.409-0.816,0.912c0,0.502,0.365,0.911,0.816,0.911
				s0.816-0.409,0.816-0.911C57.929,24.343,57.563,23.935,57.112,23.935z"/>
		</g>
		<g>
			<ellipse fill="#57595F" cx="56.833" cy="29.093" rx="0.986" ry="1.081"/>
			<path fill="#57595F" d="M56.831,30.344c-0.637,0-1.154-0.562-1.154-1.251s0.518-1.251,1.154-1.251
				c0.639,0,1.156,0.562,1.156,1.251S57.47,30.344,56.831,30.344z M56.831,28.181c-0.449,0-0.814,0.409-0.814,0.912
				c0,0.502,0.365,0.911,0.814,0.911c0.451,0,0.818-0.409,0.818-0.911C57.649,28.59,57.282,28.181,56.831,28.181z"/>
		</g>
		<g>
			<ellipse fill="#57595F" cx="55.845" cy="33.092" rx="0.986" ry="1.082"/>
			<path fill="#57595F" d="M55.847,34.344c-0.639,0-1.158-0.562-1.158-1.252c0-0.688,0.52-1.25,1.158-1.25
				c0.637,0,1.154,0.562,1.154,1.25C57.001,33.782,56.483,34.344,55.847,34.344z M55.847,32.182c-0.451,0-0.818,0.408-0.818,0.91
				c0,0.504,0.367,0.912,0.818,0.912c0.449,0,0.814-0.408,0.814-0.912C56.661,32.59,56.296,32.182,55.847,32.182z"/>
		</g>
		<g>
			<g>
				<path fill="#FFFFFF" d="M29.237,49.114c-8.098,0-14.145-2.581-17.977-7.673c-2.662-3.538-4.246-8.213-4.846-14.293
					c-0.488-4.953,0.762-12.366,5.732-18.316c4.016-4.805,9.789-7.641,16.697-8.2c1.016-0.082,2.02-0.124,2.985-0.124
					C47.897,0.509,54.337,12.086,54.97,22c0.336,5.261-1.174,13.521-6.537,19.486c-4.248,4.725-10.125,7.278-17.467,7.591
					C30.381,49.103,29.799,49.114,29.237,49.114L29.237,49.114z"/>
			</g>
			<g>
				<path fill="#57595F" d="M31.829,0.679c17.061,0,22.43,12.837,22.973,21.333c0.572,8.968-4.104,26.057-23.844,26.897
					c-0.588,0.025-1.162,0.036-1.721,0.036c-18.238,0-21.785-13.011-22.652-21.813C5.665,17.805,11.159,2.233,28.86,0.802
					C29.887,0.719,30.875,0.679,31.829,0.679 M31.829,0.339c-0.971,0-1.979,0.042-2.997,0.124
					c-6.955,0.562-12.771,3.419-16.814,8.261c-5.006,5.989-6.264,13.453-5.771,18.44c0.602,6.113,2.197,10.815,4.879,14.379
					c3.865,5.136,9.959,7.74,18.111,7.74c0.566,0,1.148-0.013,1.734-0.037c7.391-0.314,13.309-2.888,17.588-7.647
					c5.398-6.004,6.918-14.316,6.58-19.61c-0.332-5.215-2.289-10.335-5.369-14.047C45.585,2.897,39.55,0.339,31.829,0.339
					L31.829,0.339z"/>
			</g>
		</g>
		<g>
			<path fill="#C8C4C6" d="M18.135,40.387c-4.004-0.059-7.355-1.825-8.986-2.863c1.268,2.778,3.127,5.386,5.865,7.407
				c1.521-0.114,2.656-0.255,2.656-0.255S23.823,40.472,18.135,40.387z"/>
		</g>
		<g>
			<path fill="#C8C4C6" d="M32.065,48.84c18.807-1.42,23.297-18.031,22.736-26.829C54.413,15.93,51.55,7.625,43.696,3.396
				c-2.914-0.793-6.322-1.116-10.293-0.795c-17.702,1.432-23.196,17.004-22.276,26.33C11.893,36.706,17.932,46.675,32.065,48.84z"/>
		</g>
		<g>
			<path fill="#9A9C9F" d="M48.376,6.911c3.494,4.852,5.807,12.024,4.68,19.687c-1.697,11.541-8.832,11.946-8.832,11.946
				s-3.812,2.14-4.223,3.205c-0.41,1.064,0.41,2.075,0.75,3.441c0.174,0.697,0.896,0.856,1.607,0.824
				c10.219-5.421,12.883-17.109,12.443-24.003C54.503,17.337,52.739,11.352,48.376,6.911z"/>
		</g>
		<g>
			<path fill="#57595F" d="M11.661,32.798c1.543,6.441,5.902,13.917,20.403,12.778c14.498-1.138,18.98-12.866,17.803-20.369
				c-1.398-8.917-9.48-16.087-23.752-13.879C12.547,13.428,10.313,27.167,11.661,32.798z"/>
			<path fill="#57595F" d="M29.213,45.861L29.213,45.861c-9.688,0-15.648-4.381-17.717-13.024c-0.885-3.694-0.146-9.87,2.979-14.524
				c2.66-3.965,6.568-6.372,11.611-7.151c1.74-0.269,3.439-0.405,5.048-0.405c12.267,0,17.806,7.451,18.899,14.425
				c0.561,3.583-0.113,9.026-3.691,13.557c-3.242,4.106-8.176,6.53-14.268,7.008C31.092,45.823,30.129,45.861,29.213,45.861z
				 M31.135,11.096c-1.593,0-3.275,0.135-4.996,0.4c-4.947,0.766-8.775,3.123-11.381,7.006c-3.432,5.111-3.633,11.326-2.932,14.256
				c2.055,8.589,7.742,12.765,17.387,12.765l0,0c0.906,0,1.861-0.039,2.836-0.115c5.994-0.471,10.844-2.85,14.027-6.88
				c3.51-4.445,4.172-9.782,3.621-13.293C48.626,18.398,43.187,11.096,31.135,11.096z"/>
		</g>
		<g>
			<path fill="#FFFFFF" d="M50.351,12.813c-0.572,1.18-6.273-5.015-5.588-5.769C45.833,5.868,51.384,10.674,50.351,12.813z"/>
		</g>
		<g>
			<path fill="#FFFFFF" d="M43.546,5.715c-0.797,1.01-2.807-0.713-2.02-1.597C42.312,3.234,44.345,4.705,43.546,5.715z"/>
		</g>
		<g>
			<g>
				<path fill="#FFFFFF" d="M30.247,49.914c-7.162,0-12.188-1.342-15.143-2.468c-3.213-1.225-4.707-2.434-4.77-2.484
					c-1.996-2.265-0.406-5.04-0.391-5.067l0.09-0.155l0.15,0.099c3.732,2.446,9.938,2.997,10.783,3.062l2.652-3.916l15.532-0.234
					l1.6,3.276c3.631-0.466,9.467-2.977,9.525-3.003l0.143-0.061l0.074,0.136c1.506,2.738,0.006,4.97-0.01,4.992
					c-0.184,0.232-4.49,5.524-19.057,5.812c-0.399,0.009-0.792,0.012-1.178,0.012H30.247z"/>
			</g>
			<g>
				<path fill="#57595F" d="M39.046,38.921l1.605,3.287c3.688-0.433,9.691-3.028,9.691-3.028c1.475,2.678,0,4.813,0,4.813
					s-4.266,5.449-18.918,5.74c-0.399,0.008-0.792,0.012-1.178,0.012c-13.812,0-19.805-4.914-19.805-4.914
					c-1.918-2.18-0.352-4.851-0.352-4.851c4.078,2.671,10.963,3.096,10.963,3.096l2.656-3.926L39.046,38.921 M39.257,38.578
					l-0.217,0.003l-15.336,0.23l-0.176,0.003l-0.1,0.146l-2.545,3.762c-1.135-0.093-7.027-0.683-10.605-3.027L9.979,39.5
					l-0.18,0.309c-0.018,0.028-1.668,2.909,0.389,5.246l0.018,0.021l0.021,0.018c0.248,0.203,6.244,4.991,20.02,4.991
					c0.391,0,0.789-0.003,1.186-0.012c14.645-0.29,19-5.643,19.178-5.87l0.008-0.007l0.004-0.009
					c0.018-0.024,0.41-0.601,0.605-1.525c0.18-0.849,0.225-2.171-0.586-3.646l-0.15-0.271l-0.283,0.122
					c-0.057,0.026-5.744,2.473-9.359,2.973l-1.498-3.068L39.257,38.578L39.257,38.578z"/>
			</g>
		</g>
		<g>
			<path fill="#C8C4C6" d="M50.343,43.993c0,0,1.475-2.136,0-4.813c0,0-6.004,2.596-9.691,3.028l-1.605-3.287l-1.896,0.028
				c0.045,0.152,0.078,0.25,0.078,0.25l2.414,6.494l-1.918,3.541C47.337,47.826,50.343,43.993,50.343,43.993z"/>
		</g>
		<g>
			<path fill="#9A9C9F" d="M50.343,43.993c0,0,1.475-2.136,0-4.813c0,0-0.736,0.317-1.852,0.75c0.324,1.546,0.479,3.991-0.947,5.507
				c-0.92,0.978-2.281,1.688-3.754,2.371C48.661,46.138,50.343,43.993,50.343,43.993z"/>
		</g>
		<g>
			<path fill="#9A9C9F" d="M30.69,47.08c-0.281,0-0.508-0.229-0.508-0.509v-5.3c0-0.281,0.227-0.509,0.508-0.509
				s0.509,0.228,0.509,0.509v5.3C31.199,46.852,30.971,47.08,30.69,47.08z"/>
		</g>
		<g>
			<path fill="#9A9C9F" d="M32.632,47.08c-0.281,0-0.51-0.229-0.51-0.509v-3.773c0-0.281,0.229-0.509,0.51-0.509
				s0.51,0.228,0.51,0.509v3.773C33.142,46.852,32.913,47.08,32.632,47.08z"/>
		</g>
		<g>
			<path fill="#9A9C9F" d="M28.75,47.08c-0.281,0-0.51-0.229-0.51-0.509v-3.773c0-0.281,0.229-0.509,0.51-0.509
				s0.51,0.228,0.51,0.509v3.773C29.26,46.852,29.032,47.08,28.75,47.08z"/>
		</g>
		<g>
			<path fill="#9A9C9F" d="M34.573,47.08c-0.281,0-0.51-0.229-0.51-0.509v-1.896c0-0.281,0.229-0.51,0.51-0.51s0.51,0.229,0.51,0.51
				v1.896C35.083,46.852,34.854,47.08,34.573,47.08z"/>
		</g>
		<g>
			<path fill="#9A9C9F" d="M26.811,47.08c-0.281,0-0.51-0.229-0.51-0.509v-1.896c0-0.281,0.229-0.51,0.51-0.51
				c0.279,0,0.508,0.229,0.508,0.51v1.896C27.319,46.852,27.09,47.08,26.811,47.08z"/>
		</g>
		<g>
			<path fill="#C8C4C6" d="M12.936,43.21c0,0.497-0.406,0.902-0.904,0.902c-0.496,0-0.902-0.405-0.902-0.902
				c0-0.499,0.406-0.902,0.902-0.902C12.53,42.308,12.936,42.711,12.936,43.21z"/>
		</g>
		<g>
			<circle fill="#C8C4C6" cx="48.276" cy="42.651" r="0.902"/>
			<path fill="#9A9C9F" d="M48.276,43.723c-0.592,0-1.072-0.48-1.072-1.071c0-0.592,0.48-1.072,1.072-1.072
				c0.59,0,1.072,0.48,1.072,1.072C49.349,43.242,48.866,43.723,48.276,43.723z M48.276,41.919c-0.404,0-0.732,0.328-0.732,0.732
				c0,0.403,0.328,0.731,0.732,0.731s0.732-0.328,0.732-0.731C49.009,42.247,48.681,41.919,48.276,41.919z"/>
		</g>
		<g>
			<path fill="#C8C4C6" d="M20.661,43.044l-1.924,3.047l2.141,2.801c0.178,0.033,0.357,0.067,0.541,0.1l-2.244-2.972l1.879-2.943
				C21.053,43.076,20.911,43.066,20.661,43.044z"/>
		</g>
		<g>
			<path fill="#C8C4C6" d="M10.442,44.831c0,0,3.26,2.673,10.512,4.076l-0.029-0.332c-6.662-1.501-9.773-3.521-11.084-4.657
				C9.985,44.226,10.18,44.533,10.442,44.831z"/>
		</g>
		<g>
			<g>
				<path fill="#9A9C9F" d="M22.661,48.01c-0.021-0.005-0.041-0.019-0.053-0.038l-0.49-0.799c-0.014-0.02-0.016-0.043-0.012-0.064
					c0.006-0.022,0.02-0.041,0.039-0.053l0.801-0.492c0.016-0.009,0.029-0.013,0.045-0.013c0.027,0,0.057,0.015,0.072,0.041
					l0.492,0.8c0.023,0.039,0.01,0.092-0.029,0.116L22.725,48c-0.014,0.009-0.029,0.013-0.045,0.013
					C22.674,48.013,22.667,48.012,22.661,48.01z"/>
			</g>
			<g>
				<path fill="#57595F" d="M22.991,46.636l0.492,0.8l-0.803,0.492l-0.49-0.8L22.991,46.636 M22.991,46.466
					c-0.029,0-0.061,0.009-0.088,0.025L22.1,46.983c-0.039,0.023-0.064,0.062-0.076,0.105c-0.01,0.043-0.004,0.089,0.02,0.128
					l0.492,0.801c0.023,0.037,0.062,0.065,0.105,0.075c0.012,0.003,0.025,0.005,0.039,0.005c0.031,0,0.062-0.009,0.09-0.025
					l0.801-0.493c0.08-0.049,0.104-0.153,0.055-0.232l-0.49-0.8C23.104,46.494,23.047,46.466,22.991,46.466L22.991,46.466z"/>
			</g>
		</g>
		<g>
			<g>
				<path fill="#C8C4C6" d="M26.993,53.835c-0.021-0.005-0.041-0.018-0.053-0.037l-4.898-7.979c-0.012-0.02-0.016-0.043-0.01-0.064
					c0.004-0.022,0.02-0.04,0.037-0.052l1.791-1.1c0.014-0.008,0.027-0.012,0.043-0.012c0.029,0,0.057,0.014,0.072,0.041l4.9,7.978
					c0.023,0.041,0.01,0.092-0.029,0.116l-1.789,1.1c-0.016,0.008-0.029,0.014-0.045,0.014
					C27.006,53.839,26.999,53.837,26.993,53.835z"/>
			</g>
			<g>
				<path fill="#57595F" d="M23.903,44.676l4.898,7.979l-1.789,1.1l-4.898-7.98L23.903,44.676 M23.903,44.506
					c-0.029,0-0.061,0.008-0.088,0.025l-1.791,1.099c-0.037,0.023-0.064,0.061-0.076,0.104c-0.01,0.045-0.002,0.091,0.021,0.128
					l4.898,7.98c0.023,0.037,0.061,0.065,0.105,0.075c0.012,0.003,0.025,0.005,0.039,0.005c0.031,0,0.062-0.009,0.088-0.025
					l1.791-1.099c0.08-0.05,0.104-0.153,0.055-0.233l-4.896-7.979C24.016,44.534,23.961,44.506,23.903,44.506L23.903,44.506z"/>
			</g>
		</g>
		<g>
			<g>
				<path fill="#C8C4C6" d="M23.454,49.672c-0.027,0-0.055-0.015-0.07-0.041l-1.742-2.838c-0.014-0.02-0.016-0.043-0.012-0.064
					c0.006-0.022,0.02-0.041,0.039-0.052l0.354-0.218c0.016-0.009,0.029-0.013,0.045-0.013c0.029,0,0.057,0.015,0.072,0.04
					l1.742,2.839c0.014,0.02,0.016,0.042,0.01,0.064c-0.004,0.021-0.018,0.041-0.037,0.052l-0.355,0.218
					C23.485,49.668,23.469,49.672,23.454,49.672z"/>
			</g>
			<g>
				<path fill="#57595F" d="M22.067,46.531l1.742,2.838l-0.355,0.218l-1.74-2.839L22.067,46.531 M22.067,46.361
					c-0.029,0-0.061,0.008-0.088,0.024l-0.355,0.219c-0.039,0.023-0.066,0.061-0.076,0.104s-0.004,0.09,0.02,0.128l1.744,2.839
					c0.031,0.052,0.088,0.081,0.145,0.081c0.029,0,0.061-0.009,0.088-0.026l0.355-0.217c0.037-0.023,0.064-0.061,0.076-0.104
					c0.01-0.044,0.002-0.091-0.021-0.129l-1.742-2.838C22.18,46.391,22.124,46.361,22.067,46.361L22.067,46.361z"/>
			</g>
		</g>
		<g>
			<g>
				<path fill="#9A9C9F" d="M22.909,45.853c-0.162,0.093-0.35,0.025-0.416-0.148l-0.326-0.86c-0.066-0.175,0.008-0.396,0.168-0.494
					l0.18-0.11c0.16-0.099,0.389-0.061,0.508,0.082l0.609,0.733c0.119,0.145,0.084,0.338-0.078,0.43L22.909,45.853z"/>
			</g>
			<g>
				<path fill="#57595F" d="M22.758,46.064c-0.188,0-0.354-0.118-0.424-0.3l-0.326-0.86c-0.098-0.251,0.008-0.559,0.236-0.699
					l0.182-0.111c0.223-0.136,0.559-0.081,0.725,0.119l0.611,0.733c0.09,0.107,0.127,0.243,0.104,0.373
					c-0.023,0.129-0.107,0.244-0.227,0.312l-0.646,0.369C22.92,46.043,22.838,46.064,22.758,46.064z M22.715,44.354
					c-0.043,0-0.08,0.009-0.111,0.028l-0.182,0.111c-0.09,0.056-0.135,0.19-0.098,0.29l0.326,0.859
					c0.029,0.075,0.104,0.103,0.174,0.062l0.645-0.368c0.035-0.02,0.057-0.047,0.062-0.077c0.006-0.032-0.006-0.065-0.031-0.097
					l-0.609-0.733C22.852,44.383,22.784,44.354,22.715,44.354z"/>
			</g>
		</g>
		<g>
			<g>
				<path fill="#9A9C9F" d="M22.909,45.853c-0.162,0.093-0.35,0.025-0.416-0.148l-0.326-0.86c-0.066-0.175,0.008-0.396,0.168-0.494
					l0.18-0.11c0.16-0.099,0.389-0.061,0.508,0.082l0.609,0.733c0.119,0.145,0.084,0.338-0.078,0.43L22.909,45.853z"/>
			</g>
			<g>
				<path fill="#57595F" d="M22.758,45.979c-0.154,0-0.287-0.095-0.346-0.246l-0.326-0.859c-0.08-0.211,0.012-0.479,0.203-0.598
					l0.182-0.11c0.188-0.115,0.475-0.068,0.615,0.102l0.609,0.733c0.074,0.089,0.105,0.197,0.086,0.304s-0.086,0.196-0.186,0.253
					l-0.645,0.368C22.889,45.961,22.823,45.979,22.758,45.979z M22.715,44.27c-0.057,0-0.111,0.015-0.156,0.041l-0.18,0.111
					c-0.125,0.077-0.188,0.256-0.135,0.393l0.328,0.859c0.047,0.121,0.18,0.171,0.293,0.105l0.646-0.368
					c0.057-0.032,0.092-0.081,0.104-0.138c0.01-0.056-0.008-0.114-0.051-0.164l-0.609-0.733
					C22.901,44.309,22.811,44.27,22.715,44.27z"/>
			</g>
		</g>
		<g>
			
				<rect x="22.366" y="46.813" transform="matrix(0.8525 -0.5227 0.5227 0.8525 -21.3464 18.9103)" fill="#9A9C9F" width="0.942" height="0.938"/>
			<path fill="#57595F" d="M22.653,48.045l-0.58-0.945l0.945-0.58l0.58,0.943L22.653,48.045z M22.305,47.155l0.402,0.656
				l0.658-0.404l-0.402-0.655L22.305,47.155z"/>
		</g>
		<g>
			
				<rect x="24.408" y="44.532" transform="matrix(0.8519 -0.5236 0.5236 0.8519 -22.0008 20.6167)" fill="#C8C4C6" width="2.1" height="9.364"/>
			<path fill="#57595F" d="M26.985,53.87l-4.988-8.124l1.936-1.188l4.986,8.123L26.985,53.87z M22.231,45.803l4.809,7.834
				l1.646-1.011l-4.811-7.834L22.231,45.803z"/>
		</g>
		<g>
			
				<rect x="22.553" y="46.394" transform="matrix(0.8527 -0.5224 0.5224 0.8527 -21.753 18.9693)" fill="#C8C4C6" width="0.417" height="3.33"/>
			<path fill="#57595F" d="M23.426,49.703l-1.83-2.982l0.5-0.306l1.83,2.981L23.426,49.703z M21.829,46.776l1.654,2.693l0.209-0.128
				l-1.652-2.693L21.829,46.776z"/>
		</g>
		<g>
			<path fill="#FFFFFF" d="M38.94,52.946c0,0-5.623,0.705-6.377,1.963c-0.758,1.258,1.062,5.13,1.363,5.124
				c0.303-0.006,5.201-1.007,6.408-2.006C41.54,57.028,38.94,52.946,38.94,52.946z"/>
			<path fill="#57595F" d="M33.927,60.203c-0.1,0-0.223-0.042-0.506-0.547c-0.506-0.895-1.684-3.703-1.004-4.834
				c0.777-1.292,5.92-1.971,6.504-2.044c0.068-0.011,0.129,0.021,0.164,0.076c0.275,0.432,2.641,4.24,1.357,5.304
				c-1.26,1.044-6.211,2.038-6.512,2.045C33.929,60.203,33.929,60.203,33.927,60.203z M38.856,53.129
				c-1.617,0.212-5.576,0.916-6.148,1.868c-0.648,1.078,0.846,4.5,1.254,4.863c0.547-0.062,5.146-1.038,6.264-1.964
				C41.097,57.176,39.583,54.296,38.856,53.129z"/>
		</g>
		<g>
			<g>
				<path fill="#FFFFFF" d="M25.768,63.565c-0.143,0-0.256-0.113-0.256-0.254V48.84c0-0.14,0.113-0.253,0.256-0.253h10.629
					c0.141,0,0.256,0.113,0.256,0.253v14.472c0,0.141-0.115,0.254-0.256,0.254H25.768z"/>
			</g>
			<g>
				<path fill="#57595F" d="M36.397,48.84v1.845v12.627H25.768V50.685V48.84H36.397 M36.397,48.332H25.768
					c-0.281,0-0.51,0.229-0.51,0.508v1.845v12.627c0,0.281,0.229,0.509,0.51,0.509h10.629c0.281,0,0.51-0.228,0.51-0.509V50.685
					V48.84C36.907,48.561,36.679,48.332,36.397,48.332L36.397,48.332z"/>
			</g>
		</g>
		<g>
			<rect x="25.768" y="48.84" fill="#C8C4C6" width="10.629" height="14.472"/>
			<path fill="#57595F" d="M36.397,63.48H25.768c-0.096,0-0.17-0.075-0.17-0.169V48.84c0-0.093,0.074-0.168,0.17-0.168h10.629
				c0.096,0,0.17,0.075,0.17,0.168v14.472C36.567,63.405,36.493,63.48,36.397,63.48z M25.938,63.142h10.292V49.01H25.938V63.142z"/>
		</g>
		<g>
			<g>
				<rect x="25.852" y="50.77" fill="#FFFFFF" width="10.461" height="12.457"/>
			</g>
			<g>
				<path fill="#57595F" d="M36.229,50.854v12.288H25.938V50.854H36.229 M36.397,50.685H25.768v12.627h10.629V50.685L36.397,50.685z
					"/>
			</g>
		</g>
		<g>
			<circle fill="#9A9C9F" cx="27.347" cy="51.888" r="0.731"/>
		</g>
		<g>
			<line fill="#FFFFFF" x1="27.379" y1="47.953" x2="27.379" y2="51.729"/>
			<path fill="#57595F" d="M27.379,52.068c-0.188,0-0.34-0.152-0.34-0.34v-3.775c0-0.188,0.152-0.34,0.34-0.34s0.34,0.151,0.34,0.34
				v3.775C27.719,51.916,27.567,52.068,27.379,52.068z"/>
		</g>
		<g>
			<circle fill="#9A9C9F" cx="29.781" cy="51.888" r="0.731"/>
		</g>
		<g>
			<line fill="#FFFFFF" x1="29.813" y1="47.953" x2="29.813" y2="51.729"/>
			<path fill="#57595F" d="M29.813,52.068c-0.189,0-0.34-0.152-0.34-0.34v-3.775c0-0.188,0.15-0.34,0.34-0.34
				c0.188,0,0.34,0.151,0.34,0.34v3.775C30.153,51.916,30,52.068,29.813,52.068z"/>
		</g>
		<g>
			<circle fill="#9A9C9F" cx="32.213" cy="51.888" r="0.731"/>
		</g>
		<g>
			<line fill="#FFFFFF" x1="32.245" y1="47.953" x2="32.245" y2="51.729"/>
			<path fill="#57595F" d="M32.245,52.068c-0.188,0-0.34-0.152-0.34-0.34v-3.775c0-0.188,0.152-0.34,0.34-0.34s0.34,0.151,0.34,0.34
				v3.775C32.585,51.916,32.433,52.068,32.245,52.068z"/>
		</g>
		<g>
			<circle fill="#9A9C9F" cx="34.646" cy="51.888" r="0.731"/>
		</g>
		<g>
			<line fill="#FFFFFF" x1="34.677" y1="47.953" x2="34.677" y2="51.729"/>
			<path fill="#57595F" d="M34.677,52.068c-0.186,0-0.338-0.152-0.338-0.34v-3.775c0-0.188,0.152-0.34,0.338-0.34
				c0.189,0,0.34,0.151,0.34,0.34v3.775C35.017,51.916,34.866,52.068,34.677,52.068z"/>
		</g>
		<g>
			<path fill="#DEE6E1" d="M34.843,54.389h-7.807c-0.188,0-0.338-0.151-0.338-0.34c0-0.187,0.15-0.338,0.338-0.338h7.807
				c0.188,0,0.34,0.151,0.34,0.338C35.183,54.237,35.03,54.389,34.843,54.389z"/>
		</g>
		<g>
			<path fill="#DEE6E1" d="M34.843,56.086h-7.807c-0.188,0-0.338-0.151-0.338-0.34c0-0.187,0.15-0.339,0.338-0.339h7.807
				c0.188,0,0.34,0.152,0.34,0.339C35.183,55.935,35.03,56.086,34.843,56.086z"/>
		</g>
		<g>
			<path fill="#DEE6E1" d="M34.843,57.783h-7.807c-0.188,0-0.338-0.152-0.338-0.339c0-0.188,0.15-0.34,0.338-0.34h7.807
				c0.188,0,0.34,0.151,0.34,0.34C35.183,57.631,35.03,57.783,34.843,57.783z"/>
		</g>
		<g>
			<path fill="#DEE6E1" d="M34.843,59.48h-7.807c-0.188,0-0.338-0.152-0.338-0.339c0-0.188,0.15-0.34,0.338-0.34h7.807
				c0.188,0,0.34,0.151,0.34,0.34C35.183,59.328,35.03,59.48,34.843,59.48z"/>
		</g>
		<g>
			<path fill="#DEE6E1" d="M34.843,61.177h-7.807c-0.188,0-0.338-0.151-0.338-0.339s0.15-0.34,0.338-0.34h7.807
				c0.188,0,0.34,0.152,0.34,0.34S35.03,61.177,34.843,61.177z"/>
		</g>
		<g>
			<path fill="#FFFFFF" d="M37.558,54.389c-1.479,0.545-3.799-0.423-5.021,1.325c-0.906,1.296-0.4,3.51,1.668,4.374
				c2.277,0.949,5.604,0.209,6.361-1.479c0.73-1.627,0.029-1.903,0.029-1.903l-0.924-4.351"/>
			<path fill="#57595F" d="M36.46,60.683c-0.797,0-1.604-0.139-2.32-0.438c-1.033-0.431-1.793-1.248-2.082-2.24
				c-0.244-0.842-0.117-1.735,0.34-2.389c0.836-1.193,2.166-1.196,3.338-1.198c0.65-0.002,1.262-0.003,1.764-0.187
				c0.088-0.034,0.186,0.012,0.217,0.1c0.033,0.088-0.012,0.187-0.1,0.218c-0.557,0.206-1.199,0.207-1.881,0.209
				c-1.143,0.002-2.324,0.004-3.061,1.054c-0.398,0.569-0.506,1.354-0.291,2.1c0.26,0.893,0.947,1.629,1.887,2.021
				c2.215,0.925,5.428,0.196,6.141-1.391c0.635-1.414,0.123-1.677,0.117-1.679c-0.049-0.022-0.088-0.068-0.1-0.121l-0.924-4.35
				c-0.021-0.091,0.039-0.181,0.131-0.2c0.088-0.019,0.182,0.037,0.201,0.131l0.91,4.277c0.072,0.052,0.172,0.15,0.242,0.32
				c0.164,0.405,0.074,0.997-0.27,1.76C40.165,59.917,38.335,60.683,36.46,60.683z"/>
		</g>
		<g>
			<g>
				<path fill="#FFFFFF" d="M41.312,60.15c-0.846,0-1.381-0.665-1.58-1.237c-0.068-0.193-0.293-0.791-0.57-1.53
					c-0.574-1.532-1.359-3.63-1.484-4.071c-0.332-1.147-0.014-1.939,0.895-2.229c0.199-0.063,0.395-0.096,0.582-0.096
					c0.891,0,1.451,0.708,1.66,1.314c0.113,0.326,0.547,1.495,0.965,2.625c0.496,1.338,0.967,2.603,1.039,2.833
					c0.363,1.135,0.094,1.891-0.799,2.246C41.774,60.102,41.536,60.15,41.312,60.15z"/>
			</g>
			<g>
				<path fill="#57595F" d="M39.153,51.155c0.789,0,1.301,0.625,1.5,1.2c0.24,0.694,1.865,5.025,2.002,5.454
					c0.139,0.431,0.482,1.568-0.699,2.038c-0.236,0.093-0.449,0.133-0.645,0.133c-0.787,0-1.254-0.651-1.422-1.123
					c-0.207-0.591-1.865-4.945-2.051-5.593c-0.186-0.646-0.307-1.672,0.785-2.021C38.813,51.183,38.989,51.155,39.153,51.155
					 M39.153,50.816L39.153,50.816c-0.205,0-0.418,0.035-0.633,0.104c-0.996,0.319-1.363,1.208-1.008,2.44
					c0.129,0.446,0.916,2.547,1.49,4.081c0.279,0.748,0.5,1.338,0.566,1.528c0.219,0.623,0.809,1.351,1.742,1.351
					c0.246,0,0.506-0.052,0.77-0.157c1.234-0.491,1.17-1.606,0.898-2.456c-0.074-0.233-0.545-1.5-1.041-2.841
					c-0.42-1.129-0.852-2.296-0.965-2.621C40.747,51.586,40.134,50.816,39.153,50.816L39.153,50.816z"/>
			</g>
		</g>
	</g>
</g>
</svg>
