<?xml version="1.0" encoding="utf-8"?>
<!-- Generator: Adobe Illustrator 16.0.3, SVG Export Plug-In . SVG Version: 6.00 Build 0)  -->
<!DOCTYPE svg PUBLIC "-//W3C//DTD SVG 1.1//EN" "http://www.w3.org/Graphics/SVG/1.1/DTD/svg11.dtd">
<svg version="1.1" id="Layer_1" xmlns="http://www.w3.org/2000/svg" xmlns:xlink="http://www.w3.org/1999/xlink" x="0px" y="0px"
	 width="545px" height="238px" viewBox="0 0 545 238" enable-background="new 0 0 545 238" xml:space="preserve">
<g>
	<g>
		<g>
			<path fill="#4C4B4C" d="M236.677,157.605c-6.522,0-11.828-5.306-11.828-11.827c0-6.522,5.306-11.828,11.828-11.828
				c6.521,0,11.828,5.306,11.828,11.828C248.505,152.3,243.199,157.605,236.677,157.605z M236.677,134.699
				c-6.109,0-11.079,4.97-11.079,11.079c0,6.107,4.97,11.077,11.079,11.077c6.108,0,11.078-4.97,11.078-11.077
				C247.755,139.669,242.786,134.699,236.677,134.699z"/>
		</g>
		<g>
			<path fill="#4C4B4C" d="M236.677,151.691c-7.81,0-15.888-1.494-15.888-3.994c0-1.378,2.387-2.281,4.39-2.796l0.125,0.483
				c-2.514,0.646-4.015,1.511-4.015,2.312c0,1.688,6.183,3.495,15.388,3.495c9.204,0,15.387-1.808,15.387-3.495
				c0-0.803-1.501-1.667-4.017-2.312l0.125-0.483c2.003,0.514,4.392,1.416,4.392,2.796
				C252.564,150.197,244.486,151.691,236.677,151.691z"/>
		</g>
		<g>
			<path fill="#4C4B4C" d="M230.526,142.622c-0.717,0-1.3-0.584-1.3-1.301s0.583-1.301,1.3-1.301c0.717,0,1.3,0.584,1.3,1.301
				S231.243,142.622,230.526,142.622z M230.526,140.271c-0.579,0-1.051,0.471-1.051,1.051c0,0.579,0.472,1.051,1.051,1.051
				s1.051-0.472,1.051-1.051C231.577,140.741,231.105,140.271,230.526,140.271z"/>
		</g>
		<g>
			<path fill="#4C4B4C" d="M237.853,141.203c-1.082,0-1.962-0.879-1.962-1.96c0-1.082,0.88-1.962,1.962-1.962
				c1.081,0,1.959,0.88,1.959,1.962C239.812,140.324,238.934,141.203,237.853,141.203z M237.853,137.53
				c-0.944,0-1.712,0.769-1.712,1.713c0,0.942,0.768,1.71,1.712,1.71c0.942,0,1.71-0.768,1.71-1.71
				C239.563,138.299,238.795,137.53,237.853,137.53z"/>
		</g>
		<g>
			<path fill="#4C4B4C" d="M236.677,147.986c-0.555,0-1.006-0.451-1.006-1.006s0.451-1.007,1.006-1.007
				c0.555,0,1.006,0.452,1.006,1.007S237.232,147.986,236.677,147.986z M236.677,146.224c-0.417,0-0.757,0.339-0.757,0.757
				c0,0.417,0.34,0.756,0.757,0.756s0.756-0.339,0.756-0.756C237.433,146.562,237.094,146.224,236.677,146.224z"/>
		</g>
		<g>
			<path fill="#4C4B4C" d="M239.688,154.713c-0.554,0-1.005-0.45-1.005-1.005s0.451-1.006,1.005-1.006
				c0.555,0,1.006,0.451,1.006,1.006S240.243,154.713,239.688,154.713z M239.688,152.952c-0.417,0-0.755,0.339-0.755,0.756
				s0.339,0.756,0.755,0.756c0.417,0,0.757-0.339,0.757-0.756S240.105,152.952,239.688,152.952z"/>
		</g>
		<g>
			<path fill="#4C4B4C" d="M244.937,148.866c-0.555,0-1.006-0.451-1.006-1.005c0-0.555,0.451-1.006,1.006-1.006
				c0.555,0,1.007,0.451,1.007,1.006C245.944,148.415,245.492,148.866,244.937,148.866z M244.937,147.104
				c-0.417,0-0.756,0.34-0.756,0.757c0,0.416,0.339,0.755,0.756,0.755c0.418,0,0.757-0.339,0.757-0.755
				C245.694,147.444,245.355,147.104,244.937,147.104z"/>
		</g>
	</g>
	<g>
		<path fill="#4C4B4C" d="M185.971,217.569c-2.739,0-4.967-2.228-4.967-4.966s2.228-4.966,4.967-4.966s4.967,2.228,4.967,4.966
			S188.71,217.569,185.971,217.569z M185.971,208.137c-2.463,0-4.467,2.004-4.467,4.467s2.004,4.467,4.467,4.467
			s4.467-2.004,4.467-4.467S188.435,208.137,185.971,208.137z"/>
	</g>
	<g>
		<path fill="#4C4B4C" d="M46.256,163.372c-0.034,0-0.068-0.007-0.1-0.021c-0.085-0.037-0.143-0.118-0.149-0.211l-0.16-2.188
			l-1.83-1.208c-0.077-0.051-0.12-0.141-0.111-0.232c0.009-0.093,0.068-0.172,0.154-0.207l2.03-0.828l0.584-2.113
			c0.024-0.09,0.097-0.158,0.187-0.178c0.09-0.021,0.185,0.012,0.244,0.083l1.415,1.676l2.191-0.098
			c0.092-0.017,0.18,0.043,0.227,0.123s0.045,0.179-0.003,0.258l-1.156,1.863l0.747,1.993c0.03,0.041,0.048,0.093,0.048,0.147
			c0,0.14-0.107,0.248-0.254,0.25c-0.021-0.001-0.043-0.002-0.065-0.008l-2.13-0.523l-1.715,1.367
			C46.367,163.354,46.312,163.372,46.256,163.372z M44.688,159.589l1.537,1.015c0.064,0.043,0.106,0.113,0.111,0.19l0.135,1.838
			l1.441-1.148c0.061-0.049,0.14-0.066,0.215-0.048l1.79,0.44l-0.646-1.725c-0.027-0.072-0.02-0.153,0.021-0.22l0.971-1.565
			l-1.841,0.082c-0.083,0.014-0.152-0.028-0.202-0.088l-1.188-1.408l-0.491,1.776c-0.021,0.074-0.075,0.135-0.146,0.164
			L44.688,159.589z"/>
	</g>
	<g>
		<path fill="#4C4B4C" d="M181.231,24.321c-0.005,0-0.011,0-0.017-0.001c-0.044-0.006-0.083-0.036-0.099-0.077l-0.434-1.072
			l-1.179-0.356c-0.045-0.014-0.079-0.052-0.087-0.099s0.012-0.094,0.05-0.122l0.956-0.688l-0.021-1.129
			c-0.001-0.046,0.023-0.088,0.063-0.111c0.04-0.022,0.089-0.021,0.127,0.003l1.032,0.648l1.168-0.349
			c0.044-0.013,0.092,0,0.124,0.032s0.044,0.08,0.032,0.124l-0.323,1.082l0.737,0.918c0.03,0.037,0.036,0.087,0.016,0.13
			c-0.02,0.043-0.062,0.071-0.11,0.072l-1.231,0.028l-0.704,0.917C181.306,24.304,181.27,24.321,181.231,24.321z M179.817,22.649
			l0.994,0.301c0.036,0.011,0.065,0.038,0.08,0.073l0.375,0.925l0.607-0.792c0.023-0.03,0.058-0.047,0.096-0.048l1.039-0.024
			l-0.619-0.772c-0.026-0.032-0.034-0.074-0.022-0.114l0.275-0.923l-1.001,0.299c-0.034,0.01-0.071,0.005-0.102-0.014l-0.885-0.555
			l0.019,0.963c0.001,0.041-0.019,0.08-0.052,0.104L179.817,22.649z"/>
	</g>
	<g>
		<path fill="#4C4B4C" d="M95.46,207.893c-0.006,0-0.012,0-0.017-0.001c-0.044-0.006-0.082-0.035-0.099-0.077l-0.434-1.071
			l-1.179-0.356c-0.046-0.014-0.08-0.052-0.087-0.099s0.012-0.095,0.05-0.122l0.956-0.688l-0.022-1.13
			c-0.001-0.046,0.023-0.089,0.063-0.111s0.089-0.021,0.128,0.003l1.032,0.649l1.168-0.349c0.043-0.015,0.091-0.002,0.124,0.031
			c0.033,0.032,0.044,0.08,0.032,0.124l-0.323,1.082l0.737,0.918c0.029,0.037,0.035,0.088,0.016,0.131
			c-0.021,0.043-0.063,0.071-0.11,0.072l-1.231,0.028l-0.704,0.916C95.535,207.875,95.499,207.893,95.46,207.893z M94.046,206.221
			l0.994,0.301c0.036,0.011,0.065,0.038,0.08,0.073l0.374,0.924l0.607-0.791c0.023-0.029,0.059-0.048,0.096-0.049l1.039-0.023
			l-0.62-0.772c-0.025-0.031-0.034-0.074-0.022-0.113l0.275-0.923l-1,0.298c-0.034,0.01-0.072,0.006-0.103-0.014l-0.884-0.556
			l0.019,0.964c0,0.041-0.019,0.08-0.052,0.104L94.046,206.221z"/>
	</g>
	<g>
		<path fill="#4C4B4C" d="M181.084,164.958c-0.005,0-0.011-0.001-0.017-0.001c-0.044-0.007-0.082-0.036-0.099-0.077l-0.434-1.071
			l-1.179-0.356c-0.046-0.014-0.08-0.053-0.087-0.1s0.012-0.094,0.05-0.122l0.956-0.688l-0.021-1.13
			c-0.001-0.045,0.023-0.088,0.063-0.11c0.04-0.022,0.089-0.021,0.128,0.003l1.032,0.648l1.168-0.349
			c0.043-0.013,0.091-0.001,0.124,0.031c0.033,0.033,0.044,0.08,0.032,0.124l-0.324,1.082l0.737,0.919
			c0.03,0.037,0.036,0.088,0.016,0.131c-0.02,0.043-0.062,0.071-0.11,0.072l-1.231,0.027l-0.704,0.917
			C181.16,164.94,181.123,164.958,181.084,164.958z M179.67,163.286l0.994,0.3c0.036,0.011,0.065,0.038,0.08,0.073l0.374,0.924
			l0.607-0.79c0.023-0.03,0.059-0.048,0.096-0.049l1.038-0.023l-0.619-0.772c-0.026-0.032-0.034-0.075-0.022-0.114l0.276-0.923
			l-1,0.299c-0.034,0.01-0.072,0.005-0.103-0.014l-0.884-0.557l0.019,0.964c0.001,0.041-0.019,0.08-0.052,0.104L179.67,163.286z"/>
	</g>
	<g>
		<path fill="#4C4B4C" d="M111.768,237.471c-0.011,0-0.022-0.001-0.034-0.002c-0.089-0.012-0.165-0.07-0.198-0.153l-1.032-2.553
			l-2.807-0.848c-0.091-0.027-0.158-0.104-0.174-0.198s0.023-0.188,0.101-0.244l2.277-1.639l-0.052-2.69
			c-0.001-0.092,0.047-0.177,0.127-0.223c0.08-0.045,0.178-0.043,0.256,0.006l2.456,1.544l2.778-0.83
			c0.088-0.025,0.184-0.001,0.248,0.063c0.065,0.064,0.089,0.16,0.063,0.248l-0.771,2.577l1.755,2.188
			c0.06,0.074,0.072,0.176,0.031,0.262c-0.04,0.086-0.125,0.142-0.221,0.145l-2.93,0.066l-1.677,2.184
			C111.918,237.436,111.845,237.471,111.768,237.471z M108.327,233.583l2.437,0.735c0.072,0.022,0.131,0.075,0.159,0.146
			l0.914,2.259l1.483-1.932c0.046-0.06,0.117-0.096,0.192-0.098l2.544-0.058l-1.521-1.896c-0.051-0.064-0.068-0.148-0.044-0.228
			l0.675-2.26l-2.444,0.729c-0.068,0.021-0.143,0.01-0.204-0.027l-2.16-1.357l0.045,2.359c0.001,0.082-0.037,0.159-0.104,0.207
			L108.327,233.583z"/>
	</g>
	<g>
		<path fill="#4C4B4C" d="M524.113,15.15c-0.012,0-0.023,0-0.033-0.002c-0.09-0.012-0.166-0.071-0.199-0.154l-1.031-2.552
			l-2.807-0.848c-0.09-0.027-0.158-0.104-0.174-0.198s0.023-0.188,0.102-0.244l2.275-1.638l-0.051-2.691
			c-0.002-0.092,0.047-0.177,0.127-0.222c0.078-0.045,0.178-0.043,0.256,0.006l2.455,1.543l2.779-0.829
			c0.086-0.026,0.184-0.002,0.246,0.063c0.066,0.065,0.09,0.16,0.064,0.248l-0.771,2.577l1.756,2.188
			c0.059,0.074,0.07,0.175,0.031,0.262c-0.041,0.086-0.125,0.142-0.221,0.144l-2.93,0.067l-1.678,2.183
			C524.264,15.115,524.189,15.15,524.113,15.15z M520.672,11.262l2.438,0.736c0.072,0.021,0.131,0.075,0.158,0.146l0.914,2.258
			l1.482-1.932c0.047-0.06,0.117-0.096,0.193-0.098l2.543-0.058l-1.52-1.896c-0.051-0.064-0.068-0.149-0.045-0.228l0.676-2.26
			l-2.443,0.729c-0.07,0.021-0.145,0.011-0.205-0.028l-2.16-1.357l0.045,2.36c0.002,0.083-0.035,0.16-0.104,0.208L520.672,11.262z"
			/>
	</g>
	<g>
		<path fill="#4C4B4C" d="M119.642,8.582c-0.011,0-0.022,0-0.034-0.002c-0.089-0.012-0.165-0.071-0.198-0.154l-1.032-2.552
			l-2.806-0.848c-0.091-0.028-0.159-0.104-0.174-0.198s0.023-0.188,0.101-0.244l2.277-1.638l-0.051-2.691
			c-0.002-0.092,0.047-0.177,0.126-0.222c0.08-0.045,0.178-0.043,0.256,0.006l2.456,1.543l2.778-0.829
			c0.088-0.026,0.183-0.002,0.248,0.062s0.089,0.16,0.062,0.248l-0.77,2.578l1.755,2.188c0.06,0.074,0.072,0.176,0.032,0.262
			c-0.04,0.086-0.126,0.142-0.221,0.145l-2.931,0.067l-1.676,2.183C119.792,8.546,119.719,8.582,119.642,8.582z M116.201,4.694
			l2.436,0.737c0.072,0.022,0.131,0.075,0.159,0.146l0.914,2.258l1.483-1.932c0.046-0.06,0.117-0.096,0.192-0.098l2.544-0.058
			l-1.521-1.896c-0.051-0.064-0.068-0.149-0.044-0.228l0.675-2.26l-2.443,0.729c-0.069,0.021-0.144,0.011-0.205-0.028l-2.16-1.357
			l0.045,2.36c0.001,0.083-0.038,0.16-0.104,0.208L116.201,4.694z"/>
	</g>
	<g>
		<path fill="#4C4B4C" d="M193.627,95.911c-0.053,0-0.106-0.017-0.151-0.051l-2.743-2.075l-3.135,0.785
			c-0.088,0.022-0.179-0.004-0.241-0.069c-0.062-0.065-0.084-0.158-0.059-0.244l0.912-3.1l-1.962-2.826
			c-0.054-0.078-0.06-0.18-0.013-0.264c0.046-0.083,0.137-0.134,0.23-0.128l3.292,0.154l1.917-2.516
			c0.056-0.073,0.147-0.109,0.238-0.096c0.09,0.015,0.166,0.077,0.197,0.164l1.133,3.209l3.158,1.263
			c0.085,0.034,0.145,0.112,0.155,0.204c0.01,0.091-0.03,0.181-0.105,0.233l-2.59,1.811l0.018,3.294
			c0,0.095-0.053,0.182-0.138,0.225C193.704,95.902,193.665,95.911,193.627,95.911z M190.788,93.264c0.054,0,0.107,0.017,0.151,0.05
			l2.436,1.842l-0.017-2.92c0-0.083,0.04-0.16,0.107-0.207l2.318-1.62l-2.833-1.133c-0.067-0.027-0.119-0.081-0.143-0.149
			l-1.017-2.88l-1.716,2.253c-0.05,0.065-0.128,0.105-0.21,0.098l-2.917-0.137l1.742,2.508c0.043,0.062,0.056,0.141,0.034,0.213
			l-0.822,2.796l2.828-0.708C190.748,93.267,190.768,93.264,190.788,93.264z"/>
	</g>
	<g>
		<g>
			<path fill="#4C4B4C" d="M240.851,43.278c-4.22,0-7.936-2.849-9.036-6.929c-0.651-2.415-0.322-4.939,0.925-7.106
				c1.248-2.168,3.265-3.721,5.679-4.372c0.8-0.216,1.622-0.325,2.443-0.325c4.22,0,7.936,2.849,9.035,6.928
				c1.344,4.986-1.619,10.135-6.604,11.479C242.494,43.168,241.672,43.278,240.851,43.278z M240.862,25.545
				c-0.733,0-1.468,0.098-2.183,0.291c-2.157,0.582-3.959,1.968-5.073,3.905s-1.408,4.191-0.826,6.349
				c0.983,3.644,4.302,6.189,8.071,6.189c0.733,0,1.467-0.098,2.183-0.291c4.453-1.201,7.099-5.801,5.899-10.254
				C247.95,28.09,244.631,25.545,240.862,25.545z"/>
		</g>
		<g>
			<path fill="#4C4B4C" d="M220.924,42.313c-2.088,0-3.422-0.322-3.622-1.062c-0.658-2.44,11.019-6.491,14.613-7.675l0.156,0.475
				c-9.764,3.215-14.578,5.991-14.287,7.07c0.41,1.522,10.445,0.637,24.188-3.067c6.282-1.693,12.089-3.644,16.353-5.493
				c6.12-2.654,6.154-3.808,6.099-4.012c-0.291-1.081-5.848-1.061-15.904,1.068l-0.104-0.489c3.702-0.783,15.832-3.15,16.49-0.709
				c0.294,1.089-1.854,2.637-6.383,4.601c-4.286,1.858-10.117,3.818-16.421,5.518C234.117,40.688,225.618,42.313,220.924,42.313z"/>
		</g>
		<g>
			<path fill="#4C4B4C" d="M257.8,35.635c-1.125,0-2.115-0.76-2.409-1.848c-0.174-0.644-0.086-1.316,0.247-1.895
				c0.333-0.578,0.871-0.992,1.514-1.166c0.214-0.058,0.433-0.087,0.652-0.087c1.125,0,2.115,0.76,2.408,1.847
				c0.358,1.329-0.432,2.702-1.761,3.061C258.238,35.606,258.019,35.635,257.8,35.635z M257.804,31.015
				c-0.187,0-0.373,0.025-0.555,0.074c-0.547,0.147-1.004,0.5-1.287,0.991s-0.357,1.063-0.21,1.61
				c0.25,0.925,1.092,1.571,2.047,1.571c0.186,0,0.373-0.025,0.554-0.074c1.13-0.305,1.801-1.472,1.497-2.602
				C259.602,31.661,258.76,31.015,257.804,31.015z"/>
		</g>
		<g>
			<path fill="#4C4B4C" d="M237.112,32.619c-0.505,0-0.949-0.341-1.08-0.829c-0.078-0.289-0.039-0.591,0.11-0.85
				c0.149-0.26,0.39-0.445,0.679-0.523c0.096-0.026,0.194-0.039,0.292-0.039c0.505,0,0.949,0.341,1.081,0.829
				c0.078,0.289,0.039,0.59-0.11,0.85c-0.149,0.259-0.391,0.445-0.68,0.523C237.309,32.605,237.21,32.619,237.112,32.619z
				 M237.113,30.627c-0.076,0-0.153,0.01-0.227,0.03c-0.225,0.061-0.412,0.205-0.528,0.407c-0.116,0.201-0.146,0.436-0.085,0.66
				c0.122,0.454,0.61,0.736,1.066,0.614c0.225-0.061,0.412-0.205,0.528-0.406s0.146-0.436,0.085-0.66
				C237.851,30.893,237.505,30.627,237.113,30.627z"/>
		</g>
		<g>
			<path fill="#4C4B4C" d="M243.857,34.594c-0.505,0-0.949-0.341-1.081-0.829c-0.078-0.289-0.039-0.59,0.11-0.85
				c0.149-0.259,0.391-0.445,0.68-0.523c0.096-0.026,0.194-0.039,0.292-0.039c0.505,0,0.95,0.341,1.081,0.829
				c0.078,0.289,0.039,0.59-0.11,0.85c-0.149,0.259-0.39,0.445-0.679,0.523C244.054,34.581,243.956,34.594,243.857,34.594z
				 M243.859,32.604c-0.076,0-0.153,0.01-0.228,0.03c-0.224,0.061-0.412,0.205-0.527,0.406c-0.116,0.202-0.146,0.437-0.086,0.661
				c0.122,0.453,0.61,0.736,1.067,0.614c0.224-0.061,0.412-0.206,0.527-0.407c0.116-0.202,0.146-0.436,0.086-0.66
				C244.596,32.868,244.251,32.604,243.859,32.604z"/>
		</g>
		<g>
			<path fill="#4C4B4C" d="M242.924,28.698c-0.373,0-0.701-0.252-0.799-0.613c-0.119-0.44,0.144-0.896,0.584-1.015
				c0.434-0.117,0.899,0.153,1.015,0.584c0.058,0.213,0.028,0.437-0.082,0.628c-0.111,0.191-0.289,0.329-0.502,0.386
				C243.07,28.688,242.997,28.698,242.924,28.698z M242.926,27.292c-0.051,0-0.102,0.007-0.151,0.02
				c-0.308,0.083-0.491,0.401-0.409,0.709c0.082,0.301,0.406,0.489,0.709,0.408c0.149-0.04,0.273-0.136,0.351-0.27
				c0.078-0.134,0.098-0.29,0.058-0.439C243.416,27.467,243.187,27.292,242.926,27.292z"/>
		</g>
	</g>
	<g>
		<g>
			<path fill="#4C4B4C" d="M331.699,56.927l3.484-2.977l-13.664,1.799l18.92-7.134l-4.182-1.292l0.678-0.258
				c0.592-0.225,14.49-5.5,15.029-5.649c0.504-0.139,1.021-0.209,1.539-0.209c2.596,0,4.889,1.749,5.578,4.253
				c0.41,1.491,0.217,3.052-0.549,4.396c-0.764,1.344-2.004,2.31-3.494,2.72c-0.541,0.148-21.533,4.018-22.426,4.183L331.699,56.927
				z M336.789,53.235l-3.352,2.864c7.746-1.429,21.064-3.894,21.469-4.004c1.361-0.375,2.496-1.258,3.193-2.486
				s0.875-2.655,0.5-4.017c-0.629-2.288-2.725-3.886-5.096-3.886c-0.473,0-0.945,0.064-1.406,0.191
				c-0.396,0.109-9.166,3.426-14.305,5.377l4.186,1.294l-16.23,6.121L336.789,53.235z"/>
		</g>
		<g>
			<path fill="#4C4B4C" d="M344.889,52.257c-0.059,0-0.111-0.041-0.123-0.101c-0.014-0.067,0.029-0.133,0.098-0.147l7.006-1.401
				c0.07-0.015,0.133,0.031,0.146,0.098s-0.029,0.133-0.098,0.146l-7.006,1.401C344.904,52.256,344.896,52.257,344.889,52.257z"/>
		</g>
		<g>
			<path fill="#4C4B4C" d="M346.436,46.368c-0.051,0-0.1-0.032-0.117-0.083c-0.023-0.065,0.01-0.136,0.074-0.16l3.842-1.387
				c0.064-0.023,0.135,0.01,0.16,0.075c0.023,0.065-0.012,0.136-0.076,0.16l-3.84,1.388
				C346.463,46.366,346.449,46.368,346.436,46.368z"/>
		</g>
		<g>
			<path fill="#4C4B4C" d="M344.855,49.5c-0.055,0-0.105-0.036-0.121-0.092c-0.018-0.066,0.021-0.135,0.088-0.154l4.232-1.165
				c0.07-0.017,0.137,0.021,0.154,0.087c0.018,0.067-0.021,0.136-0.088,0.154l-4.232,1.165
				C344.877,49.499,344.867,49.5,344.855,49.5z"/>
		</g>
		<g>
			<path fill="#4C4B4C" d="M339.635,52.283c-0.055,0-0.105-0.037-0.121-0.092c-0.018-0.066,0.021-0.135,0.088-0.154l3.006-0.827
				c0.068-0.019,0.135,0.021,0.154,0.087c0.018,0.066-0.021,0.135-0.088,0.153l-3.006,0.827
				C339.656,52.282,339.646,52.283,339.635,52.283z"/>
		</g>
	</g>
	<g>
		<path fill="#4C4B4C" d="M452.703,10.171c-1.85,0-3.354-1.504-3.354-3.353c0-1.849,1.504-3.353,3.354-3.353
			s3.354,1.504,3.354,3.353C456.057,8.667,454.553,10.171,452.703,10.171z M452.703,3.965c-1.574,0-2.854,1.28-2.854,2.853
			s1.279,2.854,2.854,2.854c1.572,0,2.854-1.28,2.854-2.854S454.275,3.965,452.703,3.965z"/>
	</g>
	<g>
		<path fill="#4C4B4C" d="M513.129,130.562c-1.385,0-2.512-1.127-2.512-2.513c0-1.385,1.127-2.512,2.512-2.512
			c1.387,0,2.514,1.127,2.514,2.512C515.643,129.435,514.516,130.562,513.129,130.562z M513.129,126.036
			c-1.109,0-2.012,0.903-2.012,2.013c0,1.11,0.902,2.013,2.012,2.013s2.014-0.902,2.014-2.013
			C515.143,126.939,514.238,126.036,513.129,126.036z"/>
	</g>
	<g>
		<g>
			<path fill="#4C4B4C" d="M463.357,87.52l-0.152-0.014c-21.355-1.96-25.332-20.551-25.369-20.738l-0.053-0.26l0.264-0.037
				c1.301-0.183,2.615-0.275,3.9-0.275c15.99,0,25.492,14.248,25.586,14.392l0.088,0.133L463.357,87.52z M438.387,66.929
				c0.562,2.242,5.24,18.197,24.711,20.065l3.928-6.265c-0.994-1.433-10.182-14.034-25.078-14.034
				C440.773,66.695,439.578,66.773,438.387,66.929z"/>
		</g>
		<g>
			<path fill="#4C4B4C" d="M466.969,88.449l-4.057-1.161l4.453-7.101l2.779,3.196L466.969,88.449z M463.689,86.991l3.057,0.875
				l2.779-4.433l-2.096-2.408L463.689,86.991z"/>
		</g>
		<g>
			<path fill="#4C4B4C" d="M453.053,80.777c-0.76,0-1.504-0.214-2.148-0.619c-0.918-0.576-1.557-1.474-1.799-2.529
				c-0.242-1.056-0.059-2.143,0.518-3.061c0.746-1.189,2.031-1.899,3.438-1.899c0.76,0,1.504,0.214,2.15,0.62
				c1.893,1.188,2.467,3.695,1.281,5.588C455.744,80.066,454.459,80.777,453.053,80.777z M453.061,73.168
				c-1.232,0-2.359,0.623-3.014,1.666c-0.506,0.805-0.666,1.758-0.455,2.683c0.213,0.925,0.773,1.713,1.576,2.218
				c0.566,0.354,1.219,0.542,1.885,0.542c1.232,0,2.361-0.623,3.016-1.667c1.039-1.66,0.537-3.857-1.123-4.899
				C454.379,73.356,453.727,73.168,453.061,73.168z"/>
		</g>
		<g>
			<path fill="#4C4B4C" d="M453.055,79.656c-0.551,0-1.088-0.155-1.557-0.448c-0.664-0.417-1.125-1.066-1.301-1.83
				c-0.174-0.764-0.041-1.549,0.375-2.213c0.539-0.86,1.469-1.375,2.486-1.375c0.549,0,1.088,0.155,1.557,0.449
				c0.662,0.417,1.125,1.066,1.301,1.829c0.174,0.763,0.041,1.548-0.375,2.211C455.002,79.141,454.072,79.656,453.055,79.656z
				 M453.059,74.29c-0.844,0-1.615,0.427-2.062,1.141c-0.346,0.551-0.455,1.202-0.311,1.835c0.145,0.634,0.527,1.173,1.078,1.518
				c0.389,0.244,0.834,0.372,1.291,0.372c0.844,0,1.615-0.427,2.064-1.143c0.344-0.55,0.455-1.201,0.309-1.834
				c-0.145-0.632-0.527-1.171-1.078-1.517C453.961,74.419,453.514,74.29,453.059,74.29z"/>
		</g>
		<g>
			<path fill="#4C4B4C" d="M440.871,74.481l-0.209-0.354c-2.275-3.869-2.949-7.12-2.955-7.152l-0.053-0.26l0.262-0.037
				c2.477-0.348,4.977-0.359,7.449-0.032l0.385,0.051L440.871,74.481z M438.256,67.136c0.199,0.802,0.918,3.366,2.631,6.38
				l4.027-6.423C442.697,66.832,440.473,66.847,438.256,67.136z"/>
		</g>
		<g>
			<g>
				<path fill="#4C4B4C" d="M462.934,92.878c-1.557,0-3.025-0.427-4.367-1.269c-3.338-2.094-2.289-5.592-2.279-5.627
					c0.041-0.125,0.172-0.2,0.299-0.168l3.045,0.742c0.129,0.031,0.211,0.159,0.188,0.29c-0.004,0.013-0.24,1.346,0.742,2.567
					c1.062,1.323,3.102,2.039,6.055,2.128c0.113,0.003,0.211,0.082,0.236,0.192c0.027,0.109-0.023,0.223-0.123,0.277
					C466.664,92.045,465.109,92.878,462.934,92.878z M456.709,86.358c-0.162,0.759-0.447,3.216,2.123,4.829
					c1.26,0.792,2.641,1.192,4.102,1.192c1.029,0,1.92-0.203,2.553-0.405c-2.521-0.231-4.309-0.989-5.324-2.257
					c-0.873-1.093-0.9-2.241-0.863-2.728L456.709,86.358z"/>
			</g>
			<g>
				<path fill="#4C4B4C" d="M472.52,82.612c-0.092,0-0.178-0.051-0.221-0.135c-1.988-3.816-4.004-4.617-5.344-4.617
					c-1.109,0-1.836,0.535-1.844,0.541c-0.107,0.079-0.258,0.062-0.342-0.042l-1.994-2.417c-0.084-0.102-0.074-0.251,0.023-0.341
					c0.053-0.051,1.35-1.246,3.287-1.246c0.941,0,1.873,0.285,2.77,0.848c4.09,2.563,3.916,7.126,3.914,7.172
					c-0.006,0.113-0.086,0.208-0.195,0.232C472.555,82.61,472.537,82.612,472.52,82.612z M466.955,77.361
					c1.35,0,3.305,0.707,5.236,3.905c-0.209-1.437-0.957-3.983-3.602-5.641c-0.814-0.512-1.658-0.771-2.504-0.771
					c-1.35,0-2.369,0.66-2.766,0.962l1.693,2.055C465.338,77.684,466.031,77.361,466.955,77.361z"/>
			</g>
		</g>
	</g>
	<g>
		<path fill="#4C4B4C" d="M424.682,228.057c-3.029,0-5.494-2.464-5.494-5.493s2.465-5.493,5.494-5.493s5.494,2.464,5.494,5.493
			S427.711,228.057,424.682,228.057z M424.682,217.569c-2.754,0-4.994,2.241-4.994,4.994c0,2.754,2.24,4.994,4.994,4.994
			s4.994-2.24,4.994-4.994C429.676,219.811,427.436,217.569,424.682,217.569z"/>
	</g>
	<g>
		<path fill="#4C4B4C" d="M13.074,222.813c-3.029,0-5.493-2.464-5.493-5.494c0-3.028,2.464-5.492,5.493-5.492
			c3.029,0,5.494,2.464,5.494,5.492C18.567,220.35,16.103,222.813,13.074,222.813z M13.074,212.326c-2.753,0-4.994,2.24-4.994,4.993
			c0,2.754,2.24,4.995,4.994,4.995c2.754,0,4.994-2.241,4.994-4.995C18.068,214.566,15.828,212.326,13.074,212.326z"/>
	</g>
	<g>
		<g>
			<path fill="#4C4B4C" d="M333.764,175.92c-4.301,0-7.805-3.17-7.814-7.067c-0.008-3.906,3.492-7.094,7.803-7.104
				c4.32,0,7.826,3.171,7.836,7.068c0.004,1.897-0.809,3.682-2.289,5.024c-1.473,1.336-3.43,2.074-5.514,2.078H333.764z
				 M333.773,162.248c-4.055,0.01-7.332,2.972-7.324,6.604c0.008,3.622,3.289,6.568,7.314,6.568v0.25l0.02-0.25
				c1.961-0.004,3.801-0.696,5.182-1.949c1.373-1.246,2.127-2.899,2.123-4.653C341.08,165.195,337.797,162.248,333.773,162.248z"/>
		</g>
		<g>
			<path fill="#4C4B4C" d="M333.418,169.714c0.166,0,0.332,0.001,0.5,0.003c10.059,0.118,15.73,3.38,15.73,3.38l-33.01,0.075
				C316.639,173.172,323.619,169.714,333.418,169.714 M333.418,169.215c-9.803,0-16.711,3.366-17.002,3.509
				c-0.207,0.104-0.316,0.337-0.264,0.562s0.254,0.385,0.486,0.385l0,0l33.012-0.074c0.227-0.001,0.424-0.153,0.482-0.372
				c0.057-0.218-0.039-0.448-0.234-0.562c-0.236-0.135-5.9-3.327-15.975-3.445C333.754,169.216,333.586,169.215,333.418,169.215
				L333.418,169.215z"/>
		</g>
	</g>
	<g>
		<g>
			<path fill="#4C4B4C" d="M82.652,72.153c-3.333,0-6.049-2.459-6.056-5.482c-0.003-1.474,0.627-2.858,1.775-3.9
				c1.141-1.035,2.658-1.607,4.272-1.611c3.348,0,6.064,2.459,6.071,5.483c0.003,1.473-0.627,2.858-1.775,3.9
				c-1.141,1.035-2.658,1.607-4.271,1.61H82.652z M82.659,61.66c-1.504,0.003-2.902,0.529-3.952,1.481
				c-1.042,0.946-1.614,2.199-1.611,3.529c0.006,2.748,2.499,4.983,5.556,4.983v0.25l0.015-0.25c1.49-0.003,2.889-0.529,3.938-1.48
				c1.042-0.945,1.614-2.198,1.611-3.529C88.209,63.896,85.716,61.66,82.659,61.66z"/>
		</g>
		<g>
			<path fill="#4C4B4C" d="M82.391,67.332c0.125,0,0.252,0,0.379,0.002c7.721,0.092,12.075,2.595,12.075,2.595l-25.336,0.057
				C69.508,69.985,74.867,67.332,82.391,67.332 M82.391,66.832c-7.553,0-12.881,2.596-13.104,2.706
				c-0.208,0.103-0.318,0.336-0.265,0.562c0.053,0.226,0.255,0.385,0.486,0.385c0,0,0.001,0,0.001,0l25.336-0.057
				c0.226,0,0.423-0.153,0.481-0.372c0.058-0.218-0.038-0.448-0.233-0.561c-0.183-0.105-4.556-2.569-12.318-2.662
				C82.647,66.833,82.518,66.832,82.391,66.832L82.391,66.832z"/>
		</g>
	</g>
	<g>
		<path fill="#4C4B4C" d="M344.328,231.826c-1.059,0-1.92-0.861-1.92-1.92s0.861-1.921,1.92-1.921s1.92,0.862,1.92,1.921
			S345.387,231.826,344.328,231.826z M344.328,228.485c-0.783,0-1.422,0.637-1.422,1.421c0,0.783,0.639,1.42,1.422,1.42
			s1.42-0.637,1.42-1.42C345.748,229.122,345.111,228.485,344.328,228.485z"/>
	</g>
	<g>
		<path fill="#4C4B4C" d="M2.777,93.472C1.246,93.472,0,92.227,0,90.695c0-1.531,1.246-2.776,2.777-2.776
			c1.531,0,2.776,1.246,2.776,2.776C5.553,92.227,4.308,93.472,2.777,93.472z M2.777,88.418c-1.256,0-2.277,1.021-2.277,2.277
			c0,1.256,1.021,2.277,2.277,2.277c1.255,0,2.276-1.021,2.276-2.277C5.053,89.44,4.032,88.418,2.777,88.418z"/>
	</g>
	<g>
		<path fill="#4C4B4C" d="M7.83,9.595c-1.531,0-2.777-1.246-2.777-2.777c0-1.531,1.246-2.776,2.777-2.776s2.776,1.246,2.776,2.776
			C10.606,8.349,9.361,9.595,7.83,9.595z M7.83,4.541c-1.255,0-2.277,1.021-2.277,2.277S6.575,9.095,7.83,9.095
			s2.277-1.021,2.277-2.277S9.085,4.541,7.83,4.541z"/>
	</g>
	<g>
		<path fill="#4C4B4C" d="M542.223,59.29c-1.529,0-2.775-1.246-2.775-2.776c0-1.531,1.246-2.777,2.775-2.777
			c1.531,0,2.777,1.246,2.777,2.777C545,58.044,543.754,59.29,542.223,59.29z M542.223,54.236c-1.254,0-2.275,1.021-2.275,2.277
			c0,1.255,1.021,2.277,2.275,2.277c1.256,0,2.277-1.021,2.277-2.277C544.5,55.257,543.479,54.236,542.223,54.236z"/>
	</g>
	<g>
		<path fill="#4C4B4C" d="M391.322,89.081c-1.17,0-2.123-0.953-2.123-2.125c0-1.171,0.953-2.124,2.123-2.124
			c1.172,0,2.125,0.953,2.125,2.124C393.447,88.128,392.494,89.081,391.322,89.081z M391.322,85.332
			c-0.896,0-1.625,0.729-1.625,1.625c0,0.896,0.729,1.625,1.625,1.625s1.627-0.729,1.627-1.625
			C392.949,86.061,392.219,85.332,391.322,85.332z"/>
	</g>
	<g>
		<path fill="#4C4B4C" d="M285.957,106.447c-0.961,0-1.742-0.781-1.742-1.741s0.781-1.741,1.742-1.741
			c0.959,0,1.74,0.781,1.74,1.741S286.916,106.447,285.957,106.447z M285.957,103.464c-0.686,0-1.242,0.557-1.242,1.242
			s0.557,1.242,1.242,1.242c0.684,0,1.24-0.557,1.24-1.242S286.641,103.464,285.957,103.464z"/>
	</g>
	<g>
		<path fill="#4C4B4C" d="M477.791,181.374c-1.244,0-2.258-1.013-2.258-2.258c0-1.244,1.014-2.258,2.258-2.258
			c1.246,0,2.258,1.014,2.258,2.258C480.049,180.361,479.037,181.374,477.791,181.374z M477.791,177.358
			c-0.969,0-1.758,0.789-1.758,1.758c0,0.97,0.789,1.759,1.758,1.759s1.758-0.789,1.758-1.759
			C479.549,178.147,478.76,177.358,477.791,177.358z"/>
	</g>
	<g>
		<g>
			<path fill="#4C4B4C" d="M122.892,159.529c-1.709,0-3.099-1.391-3.099-3.1c0-1.71,1.39-3.1,3.099-3.1s3.1,1.39,3.1,3.1
				C125.992,158.139,124.601,159.529,122.892,159.529z M122.892,153.829c-1.434,0-2.6,1.167-2.6,2.601s1.166,2.6,2.6,2.6
				s2.6-1.166,2.6-2.6S124.326,153.829,122.892,153.829z"/>
		</g>
		<g>
			<path fill="#4C4B4C" d="M122.892,162.989c-3.618,0-6.561-2.942-6.561-6.56s2.943-6.561,6.561-6.561s6.561,2.943,6.561,6.561
				S126.51,162.989,122.892,162.989z M122.892,150.368c-3.342,0-6.061,2.719-6.061,6.062c0,3.342,2.719,6.061,6.061,6.061
				s6.061-2.719,6.061-6.061C128.953,153.087,126.234,150.368,122.892,150.368z"/>
		</g>
		<g>
			<path fill="#4C4B4C" d="M122.892,167.33c-6.011,0-10.901-4.89-10.901-10.9c0-6.012,4.891-10.901,10.901-10.901
				c6.011,0,10.901,4.89,10.901,10.901C133.793,162.44,128.903,167.33,122.892,167.33z M122.892,146.027
				c-5.735,0-10.401,4.667-10.401,10.402s4.666,10.401,10.401,10.401c5.736,0,10.402-4.666,10.402-10.401
				S128.628,146.027,122.892,146.027z"/>
		</g>
	</g>
	<g>
		<g>
			<path fill="#4C4B4C" d="M530.451,211.666c-1.615,0-2.93-1.314-2.93-2.929c0-1.615,1.314-2.93,2.93-2.93s2.928,1.314,2.928,2.93
				C533.379,210.352,532.066,211.666,530.451,211.666z M530.451,206.183c-1.408,0-2.555,1.146-2.555,2.555
				c0,1.408,1.146,2.554,2.555,2.554s2.555-1.146,2.555-2.554C533.006,207.328,531.859,206.183,530.451,206.183z"/>
		</g>
		<g>
			<path fill="#4C4B4C" d="M530.451,214.996c-3.451,0-6.258-2.809-6.258-6.259s2.807-6.258,6.258-6.258s6.258,2.808,6.258,6.258
				S533.902,214.996,530.451,214.996z M530.451,202.854c-3.244,0-5.883,2.639-5.883,5.883s2.639,5.884,5.883,5.884
				s5.883-2.64,5.883-5.884S533.695,202.854,530.451,202.854z"/>
		</g>
		<g>
			<path fill="#4C4B4C" d="M530.451,219.17c-5.752,0-10.432-4.681-10.432-10.433c0-5.753,4.68-10.434,10.432-10.434
				c5.754,0,10.434,4.681,10.434,10.434C540.885,214.489,536.205,219.17,530.451,219.17z M530.451,198.679
				c-5.547,0-10.059,4.512-10.059,10.059c0,5.546,4.512,10.058,10.059,10.058s10.059-4.512,10.059-10.058
				C540.51,203.19,535.998,198.679,530.451,198.679z"/>
		</g>
	</g>
	<g>
		<g>
			<g>
				<path fill="#4C4B4C" d="M420.488,134.44c-0.02,0-0.041-0.005-0.059-0.016l-6.059-3.324c-0.029-0.016-0.051-0.043-0.061-0.074
					c-0.008-0.032-0.004-0.066,0.012-0.096l0.738-1.343c0.031-0.061,0.109-0.083,0.168-0.049l6.057,3.325
					c0.061,0.033,0.082,0.108,0.049,0.169l-0.736,1.343c-0.016,0.029-0.041,0.051-0.074,0.06
					C420.512,134.439,420.5,134.44,420.488,134.44z M414.602,130.941l5.838,3.205l0.617-1.124l-5.838-3.204L414.602,130.941z"/>
			</g>
			<g>
				<path fill="#4C4B4C" d="M426.834,141.143c-0.041,0-0.082-0.01-0.119-0.03l-8.926-4.9c-0.059-0.032-0.102-0.085-0.121-0.149
					c-0.018-0.063-0.01-0.132,0.021-0.189l3.395-6.183c0.066-0.122,0.219-0.165,0.338-0.1l8.926,4.9
					c0.059,0.032,0.102,0.085,0.121,0.149c0.018,0.063,0.01,0.132-0.021,0.189l-3.395,6.183
					C427.008,141.096,426.922,141.143,426.834,141.143z M418.248,135.895l8.488,4.659l3.152-5.745l-8.488-4.659L418.248,135.895z"/>
			</g>
			<g>
				<path fill="#4C4B4C" d="M424.156,139.548c-0.021,0-0.041-0.006-0.061-0.016l-3.197-1.757c-0.061-0.033-0.082-0.108-0.049-0.169
					l3.393-6.182c0.033-0.061,0.109-0.084,0.17-0.05l3.197,1.756c0.029,0.016,0.051,0.042,0.061,0.074s0.006,0.065-0.01,0.095
					l-3.395,6.183c-0.016,0.029-0.043,0.051-0.074,0.061C424.18,139.546,424.168,139.548,424.156,139.548z M421.129,137.617
					l2.979,1.636l3.273-5.964l-2.98-1.635L421.129,137.617z"/>
			</g>
			<g>
				<g>
					<path fill="#4C4B4C" d="M427.918,139.042c-0.02,0-0.041-0.005-0.059-0.016l-8.926-4.899c-0.061-0.033-0.084-0.109-0.051-0.17
						s0.111-0.083,0.17-0.049l8.926,4.899c0.061,0.033,0.082,0.109,0.049,0.17C428.006,139.019,427.963,139.042,427.918,139.042z"/>
				</g>
				<g>
					<path fill="#4C4B4C" d="M429.145,136.811c-0.021,0-0.041-0.005-0.061-0.016l-8.926-4.899c-0.061-0.033-0.082-0.109-0.049-0.17
						c0.031-0.061,0.109-0.082,0.168-0.049l8.926,4.899c0.061,0.033,0.082,0.109,0.049,0.17
						C429.23,136.787,429.188,136.811,429.145,136.811z"/>
				</g>
			</g>
		</g>
		<g>
			<g>
				<path fill="#4C4B4C" d="M406.191,126.479c-0.021,0-0.041-0.006-0.061-0.016l-6.057-3.324c-0.029-0.016-0.051-0.042-0.061-0.074
					s-0.006-0.066,0.012-0.095l0.736-1.343c0.033-0.062,0.109-0.083,0.17-0.05l6.057,3.325c0.061,0.033,0.082,0.109,0.049,0.17
					l-0.736,1.341c-0.016,0.029-0.043,0.051-0.074,0.061C406.215,126.478,406.203,126.479,406.191,126.479z M400.305,122.981
					l5.838,3.203l0.615-1.122l-5.838-3.205L400.305,122.981z"/>
			</g>
			<g>
				<path fill="#4C4B4C" d="M400.057,126.442c-0.041,0-0.082-0.01-0.119-0.031l-8.926-4.898c-0.059-0.031-0.102-0.085-0.121-0.149
					c-0.018-0.063-0.01-0.132,0.021-0.189l3.395-6.184c0.031-0.058,0.086-0.101,0.148-0.119c0.064-0.02,0.133-0.011,0.189,0.021
					l8.926,4.9c0.059,0.032,0.102,0.086,0.121,0.148c0.018,0.063,0.01,0.132-0.021,0.19l-3.395,6.182
					C400.23,126.396,400.145,126.442,400.057,126.442z M391.471,121.195l8.488,4.658l3.152-5.744l-8.488-4.66L391.471,121.195z"/>
			</g>
			<g>
				<path fill="#4C4B4C" d="M397.008,124.644c-0.021,0-0.041-0.005-0.061-0.016l-3.197-1.756c-0.029-0.016-0.051-0.042-0.061-0.074
					s-0.006-0.066,0.01-0.095l3.395-6.182c0.016-0.029,0.043-0.051,0.074-0.06c0.033-0.009,0.066-0.005,0.094,0.011l3.199,1.755
					c0.061,0.033,0.082,0.109,0.049,0.169l-3.393,6.182C397.094,124.62,397.051,124.644,397.008,124.644z M393.979,122.714
					l2.98,1.635l3.271-5.963l-2.979-1.635L393.979,122.714z"/>
			</g>
			<g>
				<g>
					<path fill="#4C4B4C" d="M402.367,122.111c-0.021,0-0.041-0.005-0.061-0.016l-8.926-4.9c-0.061-0.033-0.082-0.109-0.049-0.169
						c0.033-0.061,0.109-0.083,0.17-0.049l8.924,4.9c0.061,0.033,0.084,0.109,0.051,0.169
						C402.453,122.088,402.41,122.111,402.367,122.111z"/>
				</g>
				<g>
					<path fill="#4C4B4C" d="M401.141,124.343c-0.02,0-0.041-0.005-0.061-0.016l-8.924-4.9c-0.061-0.033-0.082-0.108-0.049-0.169
						c0.031-0.061,0.109-0.084,0.168-0.049l8.926,4.899c0.061,0.033,0.082,0.108,0.049,0.169
						C401.229,124.319,401.186,124.343,401.141,124.343z"/>
				</g>
			</g>
		</g>
		<g>
			<path fill="#4C4B4C" d="M412.84,128.06c-0.711,0-1.416-0.182-2.043-0.525c-2.055-1.128-2.809-3.718-1.68-5.771
				c0.746-1.359,2.176-2.205,3.729-2.205c0.709,0,1.416,0.182,2.041,0.525c0.996,0.546,1.719,1.447,2.037,2.537
				c0.316,1.09,0.191,2.238-0.355,3.233C415.822,127.214,414.393,128.06,412.84,128.06z M412.846,120.058
				c-1.371,0-2.633,0.745-3.291,1.945c-0.996,1.812-0.33,4.098,1.482,5.094c0.553,0.303,1.176,0.463,1.803,0.463
				c1.371,0,2.631-0.745,3.291-1.946c0.482-0.879,0.594-1.892,0.312-2.854c-0.279-0.962-0.918-1.757-1.795-2.238
				C414.096,120.218,413.473,120.058,412.846,120.058z"/>
		</g>
		<g>
			<path fill="#4C4B4C" d="M413.658,135.418c-0.041,0-0.082-0.01-0.119-0.03l-10.84-5.949c-0.057-0.032-0.102-0.086-0.119-0.149
				s-0.012-0.132,0.021-0.19l4.604-8.386c0.031-0.058,0.086-0.102,0.148-0.12c0.064-0.018,0.133-0.011,0.189,0.021l10.838,5.949
				c0.121,0.066,0.166,0.219,0.1,0.339l-4.604,8.387c-0.031,0.058-0.084,0.101-0.148,0.119
				C413.705,135.415,413.682,135.418,413.658,135.418z M403.158,129.12l10.402,5.709l4.361-7.948l-10.4-5.709L403.158,129.12z"/>
		</g>
		<g>
			<path fill="#4C4B4C" d="M411.746,134.244c-0.02,0-0.041-0.006-0.059-0.016l-7.016-3.852c-0.029-0.016-0.051-0.042-0.059-0.074
				c-0.01-0.032-0.006-0.066,0.01-0.095l2.68-4.879c0.033-0.061,0.109-0.082,0.168-0.049l7.014,3.85
				c0.061,0.033,0.082,0.109,0.049,0.17l-2.678,4.879c-0.016,0.029-0.041,0.051-0.074,0.061
				C411.77,134.242,411.758,134.244,411.746,134.244z M404.902,130.219l6.795,3.73l2.559-4.66l-6.795-3.729L404.902,130.219z"/>
		</g>
	</g>
</g>
</svg>
